<svg width="167" height="36" viewBox="0 0 167 36" fill="none" xmlns="http://www.w3.org/2000/svg">
<rect width="167" height="35.2341" rx="16" fill="url(#paint0_linear_7150_31745)"/>
<g clip-path="url(#clip0_7150_31745)">
<path d="M148.413 19.7059C148.352 19.6821 148.291 19.6579 148.229 19.6354C146.616 19.0533 145.253 18.1084 144.135 16.8107C143.332 15.8799 142.729 14.8319 142.329 13.6699C142.216 13.3441 142.033 13.0984 141.679 13.0226C141.208 12.9214 140.854 13.1622 140.66 13.7003C139.863 15.9134 138.457 17.6293 136.444 18.8464C135.879 19.1881 135.283 19.4659 134.657 19.6764C134.303 19.7953 134.053 20.0088 134.008 20.3976C133.957 20.8327 134.177 21.1524 134.628 21.3117C136.698 22.0453 138.354 23.3157 139.582 25.1386C140.054 25.84 140.416 26.597 140.697 27.3944C140.836 27.7898 141.121 27.999 141.495 28.0003C141.899 28.0016 142.165 27.7828 142.331 27.3222C143.119 25.1232 144.51 23.4125 146.5 22.1906C147.1 21.8221 147.74 21.5363 148.405 21.3025C148.789 21.1673 149.009 20.8582 149.005 20.4967C149.001 20.1387 148.785 19.8499 148.414 19.7059H148.413Z" fill="white"/>
<path d="M153.998 12.9431C153.971 12.4966 153.678 12.2857 153.292 12.1466C152.32 11.7969 151.506 11.2179 150.842 10.4271C150.385 9.88328 150.048 9.27255 149.809 8.60458C149.666 8.20608 149.384 8.00177 149.01 8.00001C148.619 7.99825 148.34 8.20608 148.187 8.63452C147.917 9.3888 147.516 10.0625 146.971 10.6503C146.317 11.357 145.532 11.8661 144.625 12.1849C144.345 12.2831 144.139 12.4513 144.044 12.737C143.891 13.1998 144.13 13.6318 144.645 13.8154C145.782 14.2209 146.703 14.9136 147.416 15.8858C147.769 16.3675 148.021 16.9007 148.228 17.4591C148.355 17.8003 148.665 18.0082 149.008 17.9971C149.371 17.9857 149.63 17.8087 149.774 17.4714C149.805 17.3974 149.831 17.3213 149.86 17.2464C150.22 16.3045 150.78 15.504 151.552 14.8523C152.094 14.3944 152.702 14.054 153.37 13.8132C153.815 13.6525 154.022 13.3583 153.997 12.9431H153.998Z" fill="white"/>
</g>
<path d="M16.3604 22.1594C15.5959 22.1594 14.9378 21.9863 14.3859 21.6401C13.8374 21.2904 13.4158 20.8088 13.1209 20.1952C12.8261 19.5816 12.6787 18.8788 12.6787 18.087C12.6787 17.2848 12.8296 16.5769 13.1312 15.9633C13.4329 15.3463 13.858 14.8647 14.4064 14.5184C14.9549 14.1722 15.6011 13.9991 16.345 13.9991C16.9449 13.9991 17.4796 14.1105 17.9493 14.3333C18.4189 14.5527 18.7977 14.8612 19.0856 15.2589C19.377 15.6565 19.5501 16.121 19.605 16.6524H18.1087C18.0264 16.2821 17.8378 15.9633 17.543 15.696C17.2517 15.4286 16.8609 15.2949 16.3707 15.2949C15.9422 15.2949 15.5668 15.408 15.2446 15.6342C14.9258 15.8571 14.6772 16.1759 14.499 16.5907C14.3207 17.002 14.2316 17.4888 14.2316 18.051C14.2316 18.6269 14.319 19.1239 14.4939 19.5421C14.6687 19.9604 14.9155 20.2843 15.2343 20.514C15.5565 20.7436 15.9353 20.8585 16.3707 20.8585C16.662 20.8585 16.926 20.8054 17.1625 20.6991C17.4025 20.5894 17.603 20.4334 17.7641 20.2312C17.9287 20.0289 18.0435 19.7855 18.1087 19.501H19.605C19.5501 20.0118 19.3839 20.4677 19.1062 20.8688C18.8285 21.2698 18.4566 21.5852 17.9904 21.8149C17.5276 22.0446 16.9843 22.1594 16.3604 22.1594ZM21.2491 22V14.1019H22.7351V15.3566H22.8174C22.9614 14.9315 23.2151 14.5973 23.5784 14.3539C23.9452 14.1071 24.36 13.9837 24.8228 13.9837C24.9188 13.9837 25.0319 13.9871 25.1621 13.994C25.2958 14.0008 25.4004 14.0094 25.4758 14.0197V15.4903C25.4141 15.4731 25.3044 15.4543 25.1467 15.4337C24.989 15.4097 24.8313 15.3977 24.6737 15.3977C24.3103 15.3977 23.9863 15.4748 23.7018 15.6291C23.4207 15.7799 23.1979 15.9908 23.0334 16.2616C22.8688 16.529 22.7866 16.834 22.7866 17.1768V22H21.2491ZM26.8063 22V14.1019H28.3437V22H26.8063ZM27.5827 12.8833C27.3153 12.8833 27.0857 12.7942 26.8937 12.6159C26.7052 12.4342 26.6109 12.2183 26.6109 11.968C26.6109 11.7144 26.7052 11.4984 26.8937 11.3201C27.0857 11.1385 27.3153 11.0476 27.5827 11.0476C27.8501 11.0476 28.0781 11.1385 28.2666 11.3201C28.4586 11.4984 28.5546 11.7144 28.5546 11.968C28.5546 12.2183 28.4586 12.4342 28.2666 12.6159C28.0781 12.7942 27.8501 12.8833 27.5827 12.8833ZM32.7105 22.1748C32.2101 22.1748 31.7576 22.0823 31.3531 21.8972C30.9486 21.7086 30.628 21.4361 30.3915 21.0796C30.1584 20.7231 30.0419 20.286 30.0419 19.7684C30.0419 19.3228 30.1276 18.956 30.299 18.668C30.4704 18.3801 30.7018 18.1521 30.9931 17.9841C31.2845 17.8162 31.6102 17.6893 31.9701 17.6036C32.33 17.5179 32.6968 17.4528 33.0705 17.4082C33.5435 17.3534 33.9275 17.3088 34.2223 17.2745C34.5171 17.2368 34.7313 17.1768 34.865 17.0946C34.9987 17.0123 35.0656 16.8786 35.0656 16.6935V16.6575C35.0656 16.2084 34.9387 15.8605 34.6851 15.6137C34.4348 15.3669 34.0612 15.2435 33.5641 15.2435C33.0465 15.2435 32.6386 15.3583 32.3403 15.588C32.0455 15.8142 31.8416 16.0662 31.7284 16.3438L30.2835 16.0148C30.4549 15.5348 30.7052 15.1475 31.0343 14.8527C31.3668 14.5544 31.749 14.3385 32.1809 14.2048C32.6128 14.0677 33.0671 13.9991 33.5435 13.9991C33.8589 13.9991 34.1931 14.0368 34.5462 14.1122C34.9027 14.1842 35.2352 14.3179 35.5438 14.5133C35.8557 14.7087 36.1111 14.9881 36.3099 15.3514C36.5087 15.7114 36.6082 16.1793 36.6082 16.7552V22H35.1067V20.9202H35.045C34.9456 21.119 34.7965 21.3144 34.5976 21.5064C34.3988 21.6983 34.1434 21.8577 33.8315 21.9846C33.5195 22.1114 33.1459 22.1748 32.7105 22.1748ZM33.0448 20.9408C33.4698 20.9408 33.8332 20.8568 34.1349 20.6888C34.44 20.5208 34.6713 20.3014 34.829 20.0306C34.9901 19.7564 35.0707 19.4633 35.0707 19.1514V18.1332C35.0159 18.1881 34.9096 18.2395 34.7519 18.2875C34.5976 18.3321 34.4211 18.3715 34.2223 18.4058C34.0235 18.4366 33.8298 18.4658 33.6412 18.4932C33.4527 18.5172 33.295 18.5377 33.1682 18.5549C32.8699 18.5926 32.5974 18.656 32.3506 18.7451C32.1072 18.8343 31.9118 18.9628 31.7644 19.1308C31.6204 19.2953 31.5485 19.5147 31.5485 19.789C31.5485 20.1695 31.689 20.4574 31.9701 20.6528C32.2512 20.8448 32.6094 20.9408 33.0448 20.9408ZM41.6126 22.1543C40.975 22.1543 40.4059 21.9914 39.9054 21.6658C39.4084 21.3367 39.0176 20.8688 38.7331 20.262C38.452 19.6518 38.3114 18.92 38.3114 18.0664C38.3114 17.2128 38.4537 16.4827 38.7382 15.8759C39.0262 15.2692 39.4204 14.8047 39.9209 14.4824C40.4213 14.1602 40.9887 13.9991 41.6229 13.9991C42.1131 13.9991 42.5073 14.0814 42.8055 14.2459C43.1072 14.407 43.3403 14.5956 43.5048 14.8115C43.6728 15.0275 43.803 15.2178 43.8956 15.3823H43.9882V11.4693H45.5256V22H44.0241V20.7711H43.8956C43.803 20.939 43.6694 21.131 43.4945 21.347C43.3231 21.5629 43.0866 21.7515 42.7849 21.9126C42.4833 22.0737 42.0925 22.1543 41.6126 22.1543ZM41.9519 20.8431C42.3941 20.8431 42.7678 20.7265 43.0729 20.4934C43.3814 20.2569 43.6145 19.9295 43.7722 19.5113C43.9333 19.0931 44.0139 18.6063 44.0139 18.051C44.0139 17.5025 43.935 17.0226 43.7773 16.6112C43.6196 16.1999 43.3883 15.8793 43.0832 15.6497C42.7781 15.42 42.401 15.3052 41.9519 15.3052C41.4892 15.3052 41.1035 15.4251 40.795 15.6651C40.4865 15.9051 40.2534 16.2324 40.0957 16.6472C39.9414 17.062 39.8643 17.5299 39.8643 18.051C39.8643 18.5789 39.9431 19.0537 40.1008 19.4753C40.2585 19.8969 40.4916 20.2312 40.8001 20.478C41.1121 20.7214 41.496 20.8431 41.9519 20.8431ZM51.0468 22.1594C50.3063 22.1594 49.6602 21.9897 49.1083 21.6503C48.5564 21.311 48.1279 20.8362 47.8228 20.226C47.5177 19.6158 47.3651 18.9028 47.3651 18.087C47.3651 17.2677 47.5177 16.5512 47.8228 15.9376C48.1279 15.324 48.5564 14.8475 49.1083 14.5082C49.6602 14.1688 50.3063 13.9991 51.0468 13.9991C51.7872 13.9991 52.4334 14.1688 52.9853 14.5082C53.5372 14.8475 53.9657 15.324 54.2708 15.9376C54.5759 16.5512 54.7284 17.2677 54.7284 18.087C54.7284 18.9028 54.5759 19.6158 54.2708 20.226C53.9657 20.8362 53.5372 21.311 52.9853 21.6503C52.4334 21.9897 51.7872 22.1594 51.0468 22.1594ZM51.0519 20.8688C51.5318 20.8688 51.9295 20.7419 52.2449 20.4883C52.5602 20.2346 52.7933 19.8969 52.9442 19.4753C53.0984 19.0537 53.1756 18.5892 53.1756 18.0818C53.1756 17.5779 53.0984 17.1151 52.9442 16.6935C52.7933 16.2684 52.5602 15.9273 52.2449 15.6702C51.9295 15.4131 51.5318 15.2846 51.0519 15.2846C50.5686 15.2846 50.1675 15.4131 49.8487 15.6702C49.5333 15.9273 49.2985 16.2684 49.1443 16.6935C48.9934 17.1151 48.918 17.5779 48.918 18.0818C48.918 18.5892 48.9934 19.0537 49.1443 19.4753C49.2985 19.8969 49.5333 20.2346 49.8487 20.4883C50.1675 20.7419 50.5686 20.8688 51.0519 20.8688ZM60.2766 24.9618V14.1019H61.7781V15.3823H61.9066C61.9957 15.2178 62.1243 15.0275 62.2923 14.8115C62.4602 14.5956 62.6933 14.407 62.9916 14.2459C63.2898 14.0814 63.684 13.9991 64.1742 13.9991C64.8118 13.9991 65.3809 14.1602 65.8814 14.4824C66.3818 14.8047 66.7743 15.2692 67.0589 15.8759C67.3468 16.4827 67.4908 17.2128 67.4908 18.0664C67.4908 18.92 67.3485 19.6518 67.064 20.262C66.7795 20.8688 66.3887 21.3367 65.8916 21.6658C65.3946 21.9914 64.8272 22.1543 64.1896 22.1543C63.7097 22.1543 63.3172 22.0737 63.0121 21.9126C62.7105 21.7515 62.4739 21.5629 62.3025 21.347C62.1311 21.131 61.9992 20.939 61.9066 20.7711H61.8141V24.9618H60.2766ZM61.7832 18.051C61.7832 18.6063 61.8638 19.0931 62.0249 19.5113C62.186 19.9295 62.4191 20.2569 62.7242 20.4934C63.0293 20.7265 63.4029 20.8431 63.8451 20.8431C64.3045 20.8431 64.6884 20.7214 64.9969 20.478C65.3055 20.2312 65.5386 19.8969 65.6962 19.4753C65.8574 19.0537 65.9379 18.5789 65.9379 18.051C65.9379 17.5299 65.8591 17.062 65.7014 16.6472C65.5471 16.2324 65.314 15.9051 65.0021 15.6651C64.6936 15.4251 64.3079 15.3052 63.8451 15.3052C63.3995 15.3052 63.0224 15.42 62.7139 15.6497C62.4088 15.8793 62.1774 16.1999 62.0197 16.6112C61.862 17.0226 61.7832 17.5025 61.7832 18.051ZM72.6173 22.1594C71.8392 22.1594 71.169 21.9931 70.6068 21.6606C70.0481 21.3247 69.6161 20.8533 69.311 20.2466C69.0094 19.6364 68.8585 18.9217 68.8585 18.1024C68.8585 17.2934 69.0094 16.5804 69.311 15.9633C69.6161 15.3463 70.0412 14.8647 70.5862 14.5184C71.1347 14.1722 71.7758 13.9991 72.5093 13.9991C72.955 13.9991 73.3869 14.0728 73.8051 14.2202C74.2233 14.3676 74.5987 14.599 74.9312 14.9144C75.2637 15.2297 75.526 15.6394 75.7179 16.1433C75.9099 16.6438 76.0059 17.2523 76.0059 17.9687V18.5137H69.7275V17.3619H74.4993C74.4993 16.9574 74.417 16.5992 74.2525 16.2873C74.0879 15.9719 73.8565 15.7234 73.5583 15.5417C73.2635 15.36 72.9173 15.2692 72.5196 15.2692C72.0877 15.2692 71.7106 15.3754 71.3884 15.588C71.0696 15.7971 70.8228 16.0713 70.6479 16.4107C70.4765 16.7466 70.3909 17.1117 70.3909 17.5059V18.4058C70.3909 18.9337 70.4834 19.3827 70.6685 19.753C70.8571 20.1232 71.1193 20.406 71.4552 20.6014C71.7912 20.7934 72.1837 20.8893 72.6327 20.8893C72.9241 20.8893 73.1898 20.8482 73.4298 20.7659C73.6697 20.6802 73.8771 20.5534 74.0519 20.3854C74.2268 20.2175 74.3604 20.0101 74.453 19.7632L75.9082 20.0255C75.7916 20.454 75.5825 20.8293 75.2809 21.1516C74.9826 21.4704 74.6073 21.7189 74.1548 21.8972C73.7057 22.072 73.1932 22.1594 72.6173 22.1594ZM79.2492 11.4693V22H77.7117V11.4693H79.2492ZM83.616 22.1748C83.1155 22.1748 82.663 22.0823 82.2585 21.8972C81.854 21.7086 81.5335 21.4361 81.297 21.0796C81.0639 20.7231 80.9473 20.286 80.9473 19.7684C80.9473 19.3228 81.033 18.956 81.2044 18.668C81.3758 18.3801 81.6072 18.1521 81.8986 17.9841C82.1899 17.8162 82.5156 17.6893 82.8755 17.6036C83.2355 17.5179 83.6023 17.4528 83.9759 17.4082C84.449 17.3534 84.8329 17.3088 85.1277 17.2745C85.4225 17.2368 85.6368 17.1768 85.7705 17.0946C85.9042 17.0123 85.971 16.8786 85.971 16.6935V16.6575C85.971 16.2084 85.8442 15.8605 85.5905 15.6137C85.3403 15.3669 84.9666 15.2435 84.4695 15.2435C83.9519 15.2435 83.544 15.3583 83.2458 15.588C82.951 15.8142 82.747 16.0662 82.6339 16.3438L81.189 16.0148C81.3604 15.5348 81.6106 15.1475 81.9397 14.8527C82.2722 14.5544 82.6544 14.3385 83.0864 14.2048C83.5183 14.0677 83.9725 13.9991 84.449 13.9991C84.7644 13.9991 85.0986 14.0368 85.4517 14.1122C85.8082 14.1842 86.1407 14.3179 86.4492 14.5133C86.7611 14.7087 87.0165 14.9881 87.2154 15.3514C87.4142 15.7114 87.5136 16.1793 87.5136 16.7552V22H86.0121V20.9202H85.9504C85.851 21.119 85.7019 21.3144 85.5031 21.5064C85.3043 21.6983 85.0489 21.8577 84.7369 21.9846C84.425 22.1114 84.0513 22.1748 83.616 22.1748ZM83.9502 20.9408C84.3753 20.9408 84.7386 20.8568 85.0403 20.6888C85.3454 20.5208 85.5768 20.3014 85.7345 20.0306C85.8956 19.7564 85.9761 19.4633 85.9761 19.1514V18.1332C85.9213 18.1881 85.815 18.2395 85.6573 18.2875C85.5031 18.3321 85.3265 18.3715 85.1277 18.4058C84.9289 18.4366 84.7352 18.4658 84.5467 18.4932C84.3581 18.5172 84.2005 18.5377 84.0736 18.5549C83.7754 18.5926 83.5029 18.656 83.256 18.7451C83.0127 18.8343 82.8173 18.9628 82.6699 19.1308C82.5259 19.2953 82.4539 19.5147 82.4539 19.789C82.4539 20.1695 82.5944 20.4574 82.8755 20.6528C83.1566 20.8448 83.5149 20.9408 83.9502 20.9408ZM93.5168 22V11.4693H97.3733C98.1206 11.4693 98.7393 11.5927 99.2295 11.8395C99.7197 12.0829 100.087 12.4137 100.33 12.8319C100.573 13.2467 100.695 13.7146 100.695 14.2356C100.695 14.6744 100.614 15.0446 100.453 15.3463C100.292 15.6445 100.076 15.8845 99.8054 16.0662C99.5381 16.2444 99.2433 16.3747 98.921 16.457V16.5598C99.2707 16.5769 99.6118 16.6901 99.9443 16.8992C100.28 17.1049 100.558 17.3979 100.777 17.7784C100.997 18.159 101.106 18.6217 101.106 19.1668C101.106 19.705 100.98 20.1883 100.726 20.6168C100.476 21.0419 100.088 21.3795 99.5638 21.6298C99.0393 21.8766 98.3691 22 97.5533 22H93.5168ZM95.1057 20.6374H97.399C98.16 20.6374 98.7051 20.49 99.0342 20.1952C99.3632 19.9004 99.5278 19.5319 99.5278 19.0896C99.5278 18.7571 99.4438 18.452 99.2758 18.1744C99.1079 17.8967 98.8679 17.6756 98.556 17.5111C98.2474 17.3465 97.8806 17.2643 97.4556 17.2643H95.1057V20.6374ZM95.1057 16.025H97.2345C97.591 16.025 97.9115 15.9565 98.196 15.8194C98.484 15.6822 98.7119 15.4903 98.8799 15.2435C99.0513 14.9932 99.137 14.6984 99.137 14.359C99.137 13.9237 98.9844 13.5586 98.6794 13.2638C98.3743 12.969 97.9064 12.8216 97.2756 12.8216H95.1057V16.025ZM104.58 11.4693V22H102.991V11.4693H104.58ZM107.783 22H106.097L109.886 11.4693H111.722L115.512 22H113.825L110.848 13.3821H110.766L107.783 22ZM108.066 17.8761H113.537V19.2131H108.066V17.8761Z" fill="white"/>
<defs>
<linearGradient id="paint0_linear_7150_31745" x1="81.2567" y1="35.2341" x2="166.754" y2="16.495" gradientUnits="userSpaceOnUse">
<stop stop-color="#573C69"/>
<stop offset="1" stop-color="#2F3D51"/>
</linearGradient>
<clipPath id="clip0_7150_31745">
<rect width="20" height="20" fill="white" transform="translate(134 8)"/>
</clipPath>
</defs>
</svg>
