<svg width="140" height="36" viewBox="0 0 140 36" fill="none" xmlns="http://www.w3.org/2000/svg">
<rect x="1" y="1" width="138" height="34" rx="17" fill="white"/>
<rect x="1" y="1" width="138" height="34" rx="17" stroke="#0E1428" stroke-width="2"/>
<path d="M25.1097 9.52932C25.0455 9.24421 24.7923 9.04167 24.5 9.04167C24.2077 9.04167 23.9545 9.24421 23.8903 9.52932L23.4413 11.5223C23.1136 12.9773 21.9773 14.1136 20.5223 14.4413L18.5293 14.8903C18.2442 14.9545 18.0417 15.2077 18.0417 15.5C18.0417 15.7923 18.2442 16.0455 18.5293 16.1097L20.5223 16.5587C21.9773 16.8864 23.1136 18.0227 23.4413 19.4777L23.8903 21.4707C23.9545 21.7558 24.2077 21.9583 24.5 21.9583C24.7923 21.9583 25.0455 21.7558 25.1097 21.4707L25.5587 19.4777C25.8864 18.0227 27.0227 16.8864 28.4777 16.5587L30.4707 16.1097C30.7558 16.0455 30.9583 15.7923 30.9583 15.5C30.9583 15.2077 30.7558 14.9545 30.4707 14.8903L28.4777 14.4413C27.0227 14.1136 25.8864 12.9773 25.5587 11.5223L25.1097 9.52932Z" fill="#FDB022"/>
<path d="M18.4431 17.8627C18.3788 17.5775 18.1256 17.375 17.8333 17.375C17.5411 17.375 17.2878 17.5775 17.2236 17.8627L16.9029 19.2862C16.684 20.2582 15.9249 21.0173 14.9529 21.2363L13.5293 21.5569C13.2442 21.6212 13.0417 21.8744 13.0417 22.1667C13.0417 22.4589 13.2442 22.7122 13.5293 22.7764L14.9529 23.0971C15.9249 23.316 16.684 24.0751 16.9029 25.0471L17.2236 26.4707C17.2878 26.7558 17.5411 26.9583 17.8333 26.9583C18.1256 26.9583 18.3788 26.7558 18.4431 26.4707L18.7637 25.0471C18.9827 24.0751 19.7418 23.316 20.7138 23.0971L22.1373 22.7764C22.4225 22.7122 22.625 22.4589 22.625 22.1667C22.625 21.8744 22.4225 21.6212 22.1373 21.5569L20.7138 21.2363C19.7418 21.0173 18.9827 20.2582 18.7637 19.2862L18.4431 17.8627Z" fill="#FDB022"/>
<path d="M45.5753 16.6293H44.0241C43.9645 16.2978 43.8535 16.0062 43.6911 15.7543C43.5286 15.5024 43.3298 15.2886 43.0945 15.1129C42.8591 14.9373 42.5956 14.8047 42.304 14.7152C42.0156 14.6257 41.709 14.581 41.3842 14.581C40.7976 14.581 40.2723 14.7285 39.8082 15.0234C39.3475 15.3184 38.983 15.7509 38.7145 16.321C38.4493 16.8911 38.3168 17.5871 38.3168 18.4091C38.3168 19.2377 38.4493 19.937 38.7145 20.5071C38.983 21.0772 39.3492 21.508 39.8132 21.7997C40.2772 22.0914 40.7992 22.2372 41.3793 22.2372C41.7008 22.2372 42.0057 22.1941 42.294 22.108C42.5857 22.0185 42.8492 21.8875 43.0845 21.7152C43.3198 21.5429 43.5187 21.3324 43.6811 21.0838C43.8468 20.8319 43.9612 20.5436 44.0241 20.2188L45.5753 20.2237C45.4924 20.7242 45.3317 21.1849 45.093 21.6058C44.8577 22.0234 44.5545 22.3847 44.1832 22.6896C43.8153 22.9912 43.3944 23.2249 42.9205 23.3906C42.4465 23.5563 41.9295 23.6392 41.3693 23.6392C40.4877 23.6392 39.7022 23.4304 39.0128 23.0128C38.3234 22.5919 37.7798 21.9903 37.3821 21.2081C36.9877 20.4259 36.7905 19.4929 36.7905 18.4091C36.7905 17.322 36.9893 16.389 37.3871 15.6101C37.7848 14.8279 38.3284 14.228 39.0178 13.8104C39.7071 13.3894 40.491 13.179 41.3693 13.179C41.9096 13.179 42.4134 13.2569 42.8807 13.4126C43.3513 13.5651 43.7739 13.7905 44.1484 14.0888C44.523 14.3838 44.8329 14.745 45.0781 15.1726C45.3234 15.5968 45.4891 16.0824 45.5753 16.6293ZM47.2942 23.5V15.8636H48.731V17.0767H48.8105C48.9498 16.6657 49.195 16.3426 49.5463 16.1072C49.901 15.8686 50.302 15.7493 50.7495 15.7493C50.8423 15.7493 50.9516 15.7526 51.0776 15.7592C51.2069 15.7659 51.3079 15.7741 51.3809 15.7841V17.206C51.3212 17.1894 51.2151 17.1712 51.0627 17.1513C50.9102 17.1281 50.7578 17.1165 50.6053 17.1165C50.254 17.1165 49.9408 17.1911 49.6657 17.3402C49.3939 17.486 49.1784 17.6899 49.0194 17.9517C48.8603 18.2102 48.7807 18.5052 48.7807 18.8366V23.5H47.2942ZM52.6673 23.5V15.8636H54.1538V23.5H52.6673ZM53.418 14.6854C53.1594 14.6854 52.9374 14.5992 52.7518 14.4268C52.5695 14.2512 52.4783 14.0424 52.4783 13.8004C52.4783 13.5552 52.5695 13.3464 52.7518 13.174C52.9374 12.9983 53.1594 12.9105 53.418 12.9105C53.6765 12.9105 53.8969 12.9983 54.0792 13.174C54.2648 13.3464 54.3576 13.5552 54.3576 13.8004C54.3576 14.0424 54.2648 14.2512 54.0792 14.4268C53.8969 14.5992 53.6765 14.6854 53.418 14.6854ZM58.3759 23.669C57.892 23.669 57.4545 23.5795 57.0634 23.4006C56.6723 23.2183 56.3624 22.9548 56.1337 22.6101C55.9083 22.2654 55.7956 21.8428 55.7956 21.3423C55.7956 20.9115 55.8785 20.5568 56.0442 20.2784C56.2099 20 56.4337 19.7796 56.7154 19.6172C56.9971 19.4548 57.312 19.3321 57.66 19.2493C58.008 19.1664 58.3626 19.1035 58.7239 19.0604C59.1813 19.0073 59.5525 18.9643 59.8375 18.9311C60.1226 18.8946 60.3297 18.8366 60.459 18.7571C60.5882 18.6776 60.6529 18.5483 60.6529 18.3693V18.3345C60.6529 17.9003 60.5302 17.5639 60.285 17.3253C60.043 17.0866 59.6818 16.9673 59.2012 16.9673C58.7007 16.9673 58.3063 17.0784 58.0179 17.3004C57.7329 17.5192 57.5357 17.7628 57.4263 18.0312L56.0293 17.7131C56.195 17.2491 56.437 16.8745 56.7551 16.5895C57.0766 16.3011 57.4462 16.0923 57.8638 15.9631C58.2814 15.8305 58.7206 15.7642 59.1813 15.7642C59.4862 15.7642 59.8094 15.8007 60.1507 15.8736C60.4954 15.9432 60.8169 16.0724 61.1152 16.2614C61.4168 16.4503 61.6638 16.7204 61.856 17.0717C62.0482 17.4197 62.1444 17.8722 62.1444 18.429V23.5H60.6926V22.456H60.633C60.5369 22.6482 60.3927 22.8371 60.2005 23.0227C60.0082 23.2083 59.7613 23.3625 59.4597 23.4851C59.1581 23.6077 58.7968 23.669 58.3759 23.669ZM58.699 22.4759C59.11 22.4759 59.4614 22.3946 59.753 22.2322C60.048 22.0698 60.2717 21.8577 60.4242 21.5959C60.58 21.3307 60.6578 21.0473 60.6578 20.7457V19.7614C60.6048 19.8144 60.5021 19.8641 60.3496 19.9105C60.2005 19.9536 60.0298 19.9917 59.8375 20.0249C59.6453 20.0547 59.458 20.0829 59.2757 20.1094C59.0935 20.1326 58.941 20.1525 58.8184 20.169C58.53 20.2055 58.2665 20.2668 58.0279 20.353C57.7926 20.4392 57.6036 20.5634 57.4611 20.7259C57.3219 20.8849 57.2523 21.0971 57.2523 21.3622C57.2523 21.7301 57.3882 22.0085 57.66 22.1974C57.9318 22.383 58.2781 22.4759 58.699 22.4759ZM66.983 23.6491C66.3665 23.6491 65.8163 23.4917 65.3324 23.1768C64.8518 22.8587 64.474 22.4062 64.1989 21.8196C63.9271 21.2296 63.7912 20.522 63.7912 19.6967C63.7912 18.8714 63.9287 18.1655 64.2038 17.5788C64.4822 16.9922 64.8634 16.5431 65.3473 16.2315C65.8312 15.92 66.3797 15.7642 66.9929 15.7642C67.4669 15.7642 67.848 15.8438 68.1364 16.0028C68.428 16.1586 68.6534 16.3409 68.8125 16.5497C68.9749 16.7585 69.1009 16.9425 69.1903 17.1016H69.2798V13.3182H70.7663V23.5H69.3146V22.3118H69.1903C69.1009 22.4742 68.9716 22.6598 68.8026 22.8686C68.6368 23.0774 68.4081 23.2597 68.1165 23.4155C67.8248 23.5713 67.447 23.6491 66.983 23.6491ZM67.3111 22.3814C67.7386 22.3814 68.0999 22.2687 68.3949 22.0433C68.6932 21.8146 68.9186 21.4981 69.071 21.0938C69.2268 20.6894 69.3047 20.2187 69.3047 19.6818C69.3047 19.1515 69.2285 18.6875 69.076 18.2898C68.9235 17.892 68.6998 17.5821 68.4048 17.3601C68.1098 17.138 67.7453 17.027 67.3111 17.027C66.8636 17.027 66.4908 17.143 66.1925 17.375C65.8942 17.607 65.6688 17.9235 65.5163 18.3246C65.3672 18.7256 65.2926 19.178 65.2926 19.6818C65.2926 20.1922 65.3688 20.6513 65.5213 21.0589C65.6738 21.4666 65.8991 21.7898 66.1974 22.0284C66.4991 22.2637 66.8703 22.3814 67.3111 22.3814ZM76.1046 23.6541C75.3887 23.6541 74.7639 23.4901 74.2303 23.1619C73.6967 22.8338 73.2824 22.3748 72.9874 21.7848C72.6924 21.1948 72.5449 20.5054 72.5449 19.7166C72.5449 18.9245 72.6924 18.2318 72.9874 17.6385C73.2824 17.0452 73.6967 16.5845 74.2303 16.2564C74.7639 15.9283 75.3887 15.7642 76.1046 15.7642C76.8205 15.7642 77.4453 15.9283 77.9789 16.2564C78.5125 16.5845 78.9268 17.0452 79.2218 17.6385C79.5167 18.2318 79.6642 18.9245 79.6642 19.7166C79.6642 20.5054 79.5167 21.1948 79.2218 21.7848C78.9268 22.3748 78.5125 22.8338 77.9789 23.1619C77.4453 23.4901 76.8205 23.6541 76.1046 23.6541ZM76.1096 22.4062C76.5736 22.4062 76.958 22.2836 77.263 22.0384C77.5679 21.7931 77.7933 21.4666 77.9391 21.0589C78.0882 20.6513 78.1628 20.2022 78.1628 19.7116C78.1628 19.2244 78.0882 18.777 77.9391 18.3693C77.7933 17.9583 77.5679 17.6286 77.263 17.38C76.958 17.1314 76.5736 17.0071 76.1096 17.0071C75.6422 17.0071 75.2544 17.1314 74.9462 17.38C74.6413 17.6286 74.4142 17.9583 74.2651 18.3693C74.1193 18.777 74.0463 19.2244 74.0463 19.7116C74.0463 20.2022 74.1193 20.6513 74.2651 21.0589C74.4142 21.4666 74.6413 21.7931 74.9462 22.0384C75.2544 22.2836 75.6422 22.4062 76.1096 22.4062ZM85.0286 26.3636V15.8636H86.4803V17.1016H86.6046C86.6908 16.9425 86.815 16.7585 86.9775 16.5497C87.1399 16.3409 87.3652 16.1586 87.6536 16.0028C87.9419 15.8438 88.3231 15.7642 88.7971 15.7642C89.4135 15.7642 89.9637 15.92 90.4476 16.2315C90.9315 16.5431 91.311 16.9922 91.5861 17.5788C91.8645 18.1655 92.0037 18.8714 92.0037 19.6967C92.0037 20.522 91.8662 21.2296 91.5911 21.8196C91.316 22.4062 90.9382 22.8587 90.4576 23.1768C89.977 23.4917 89.4284 23.6491 88.812 23.6491C88.348 23.6491 87.9685 23.5713 87.6735 23.4155C87.3818 23.2597 87.1531 23.0774 86.9874 22.8686C86.8217 22.6598 86.6941 22.4742 86.6046 22.3118H86.5151V26.3636H85.0286ZM86.4853 19.6818C86.4853 20.2187 86.5632 20.6894 86.7189 21.0938C86.8747 21.4981 87.1001 21.8146 87.3951 22.0433C87.69 22.2687 88.0513 22.3814 88.4789 22.3814C88.923 22.3814 89.2942 22.2637 89.5925 22.0284C89.8908 21.7898 90.1162 21.4666 90.2686 21.0589C90.4244 20.6513 90.5023 20.1922 90.5023 19.6818C90.5023 19.178 90.4261 18.7256 90.2736 18.3246C90.1245 17.9235 89.8991 17.607 89.5975 17.375C89.2992 17.143 88.9263 17.027 88.4789 17.027C88.048 17.027 87.6834 17.138 87.3851 17.3601C87.0901 17.5821 86.8664 17.892 86.714 18.2898C86.5615 18.6875 86.4853 19.1515 86.4853 19.6818ZM96.8858 23.6541C96.1699 23.6541 95.5452 23.4901 95.0115 23.1619C94.4779 22.8338 94.0636 22.3748 93.7686 21.7848C93.4737 21.1948 93.3262 20.5054 93.3262 19.7166C93.3262 18.9245 93.4737 18.2318 93.7686 17.6385C94.0636 17.0452 94.4779 16.5845 95.0115 16.2564C95.5452 15.9283 96.1699 15.7642 96.8858 15.7642C97.6017 15.7642 98.2265 15.9283 98.7601 16.2564C99.2937 16.5845 99.708 17.0452 100.003 17.6385C100.298 18.2318 100.445 18.9245 100.445 19.7166C100.445 20.5054 100.298 21.1948 100.003 21.7848C99.708 22.3748 99.2937 22.8338 98.7601 23.1619C98.2265 23.4901 97.6017 23.6541 96.8858 23.6541ZM96.8908 22.4062C97.3548 22.4062 97.7393 22.2836 98.0442 22.0384C98.3491 21.7931 98.5745 21.4666 98.7203 21.0589C98.8695 20.6513 98.9441 20.2022 98.9441 19.7116C98.9441 19.2244 98.8695 18.777 98.7203 18.3693C98.5745 17.9583 98.3491 17.6286 98.0442 17.38C97.7393 17.1314 97.3548 17.0071 96.8908 17.0071C96.4235 17.0071 96.0357 17.1314 95.7275 17.38C95.4225 17.6286 95.1955 17.9583 95.0463 18.3693C94.9005 18.777 94.8276 19.2244 94.8276 19.7116C94.8276 20.2022 94.9005 20.6513 95.0463 21.0589C95.1955 21.4666 95.4225 21.7931 95.7275 22.0384C96.0357 22.2836 96.4235 22.4062 96.8908 22.4062ZM102.105 23.5V15.8636H103.542V17.0767H103.621C103.76 16.6657 104.006 16.3426 104.357 16.1072C104.712 15.8686 105.113 15.7493 105.56 15.7493C105.653 15.7493 105.762 15.7526 105.888 15.7592C106.017 15.7659 106.118 15.7741 106.191 15.7841V17.206C106.132 17.1894 106.026 17.1712 105.873 17.1513C105.721 17.1281 105.568 17.1165 105.416 17.1165C105.065 17.1165 104.751 17.1911 104.476 17.3402C104.204 17.486 103.989 17.6899 103.83 17.9517C103.671 18.2102 103.591 18.5052 103.591 18.8366V23.5H102.105ZM112.838 13.3182V23.5H111.302V13.3182H112.838ZM115.936 23.5H114.305L117.969 13.3182H119.744L123.408 23.5H121.777L118.899 15.1676H118.819L115.936 23.5ZM116.209 19.5128H121.499V20.8054H116.209V19.5128Z" fill="#0E1428"/>
</svg>