<svg width="167" height="36" viewBox="0 0 167 36" fill="none" xmlns="http://www.w3.org/2000/svg">
<rect width="167" height="35.2341" rx="16" fill="url(#paint0_linear_1235_1705)"/>
<path fill-rule="evenodd" clip-rule="evenodd" d="M137.618 12.3856C137.618 11.9983 137.771 11.6267 138.045 11.3523L139.97 9.42729C140.244 9.15366 140.616 9 141.003 9C141.391 9 141.763 9.15366 142.037 9.42729L143.962 11.3523C144.236 11.6267 144.389 11.9983 144.389 12.3856C144.389 12.7729 144.236 13.1445 143.962 13.4188L142.037 15.3439C141.763 15.6175 141.391 15.7712 141.003 15.7712C140.616 15.7712 140.244 15.6175 139.97 15.3439L138.045 13.4188C137.771 13.1445 137.618 12.7729 137.618 12.3856ZM139.913 12.3856L141.003 11.2955L142.094 12.3856L141.003 13.4757L139.913 12.3856ZM131.727 19.0686C132.246 19.8211 133.041 20.535 134.115 21.0531C135.228 21.5898 136.358 21.778 137.353 21.7073C136.834 20.9548 136.039 20.2409 134.965 19.7228C133.852 19.1861 132.722 18.9978 131.727 19.0686ZM129 17.7158C130.891 16.7462 133.488 16.7324 135.857 17.8747C138.225 19.017 139.763 21.0253 140.08 23.0601C138.189 24.0296 135.592 24.0435 133.223 22.9012C130.855 21.7589 129.317 19.7506 129 17.7158ZM150.895 19.0686C149.9 18.9978 148.77 19.1861 147.657 19.7228C146.583 20.2409 145.788 20.9548 145.27 21.7073C146.265 21.778 147.395 21.5898 148.508 21.0531C149.582 20.535 150.377 19.8211 150.895 19.0686ZM142.542 23.0601C144.434 24.0296 147.031 24.0435 149.399 22.9012C151.768 21.7589 153.305 19.7506 153.623 17.7158C151.731 16.7462 149.134 16.7324 146.766 17.8747C144.398 19.017 142.86 21.0253 142.542 23.0601Z" fill="white"/>
<path d="M16.3604 22.1594C15.5959 22.1594 14.9378 21.9863 14.3859 21.6401C13.8374 21.2904 13.4158 20.8088 13.1209 20.1952C12.8261 19.5816 12.6787 18.8788 12.6787 18.087C12.6787 17.2848 12.8296 16.5769 13.1312 15.9633C13.4329 15.3463 13.858 14.8647 14.4064 14.5184C14.9549 14.1722 15.6011 13.9991 16.345 13.9991C16.9449 13.9991 17.4796 14.1105 17.9493 14.3333C18.4189 14.5527 18.7977 14.8612 19.0856 15.2589C19.377 15.6565 19.5501 16.121 19.605 16.6524H18.1087C18.0264 16.2821 17.8378 15.9633 17.543 15.696C17.2517 15.4286 16.8609 15.2949 16.3707 15.2949C15.9422 15.2949 15.5668 15.408 15.2446 15.6342C14.9258 15.8571 14.6772 16.1759 14.499 16.5907C14.3207 17.002 14.2316 17.4888 14.2316 18.051C14.2316 18.6269 14.319 19.1239 14.4939 19.5421C14.6687 19.9604 14.9155 20.2843 15.2343 20.514C15.5565 20.7436 15.9353 20.8585 16.3707 20.8585C16.662 20.8585 16.926 20.8054 17.1625 20.6991C17.4025 20.5894 17.603 20.4334 17.7641 20.2312C17.9287 20.0289 18.0435 19.7855 18.1087 19.501H19.605C19.5501 20.0118 19.3839 20.4677 19.1062 20.8688C18.8285 21.2698 18.4566 21.5852 17.9904 21.8149C17.5276 22.0446 16.9843 22.1594 16.3604 22.1594ZM21.2491 22V14.1019H22.7351V15.3566H22.8174C22.9614 14.9315 23.2151 14.5973 23.5784 14.3539C23.9452 14.1071 24.36 13.9837 24.8228 13.9837C24.9188 13.9837 25.0319 13.9871 25.1621 13.994C25.2958 14.0008 25.4004 14.0094 25.4758 14.0197V15.4903C25.4141 15.4731 25.3044 15.4543 25.1467 15.4337C24.989 15.4097 24.8313 15.3977 24.6737 15.3977C24.3103 15.3977 23.9863 15.4748 23.7018 15.6291C23.4207 15.7799 23.1979 15.9908 23.0334 16.2616C22.8688 16.529 22.7866 16.834 22.7866 17.1768V22H21.2491ZM26.8063 22V14.1019H28.3437V22H26.8063ZM27.5827 12.8833C27.3153 12.8833 27.0857 12.7942 26.8937 12.6159C26.7052 12.4342 26.6109 12.2183 26.6109 11.968C26.6109 11.7144 26.7052 11.4984 26.8937 11.3201C27.0857 11.1385 27.3153 11.0476 27.5827 11.0476C27.8501 11.0476 28.0781 11.1385 28.2666 11.3201C28.4586 11.4984 28.5546 11.7144 28.5546 11.968C28.5546 12.2183 28.4586 12.4342 28.2666 12.6159C28.0781 12.7942 27.8501 12.8833 27.5827 12.8833ZM32.7105 22.1748C32.2101 22.1748 31.7576 22.0823 31.3531 21.8972C30.9486 21.7086 30.628 21.4361 30.3915 21.0796C30.1584 20.7231 30.0419 20.286 30.0419 19.7684C30.0419 19.3228 30.1276 18.956 30.299 18.668C30.4704 18.3801 30.7018 18.1521 30.9931 17.9841C31.2845 17.8162 31.6102 17.6893 31.9701 17.6036C32.33 17.5179 32.6968 17.4528 33.0705 17.4082C33.5435 17.3534 33.9275 17.3088 34.2223 17.2745C34.5171 17.2368 34.7313 17.1768 34.865 17.0946C34.9987 17.0123 35.0656 16.8786 35.0656 16.6935V16.6575C35.0656 16.2084 34.9387 15.8605 34.6851 15.6137C34.4348 15.3669 34.0612 15.2435 33.5641 15.2435C33.0465 15.2435 32.6386 15.3583 32.3403 15.588C32.0455 15.8142 31.8416 16.0662 31.7284 16.3438L30.2835 16.0148C30.4549 15.5348 30.7052 15.1475 31.0343 14.8527C31.3668 14.5544 31.749 14.3385 32.1809 14.2048C32.6128 14.0677 33.0671 13.9991 33.5435 13.9991C33.8589 13.9991 34.1931 14.0368 34.5462 14.1122C34.9027 14.1842 35.2352 14.3179 35.5438 14.5133C35.8557 14.7087 36.1111 14.9881 36.3099 15.3514C36.5087 15.7114 36.6082 16.1793 36.6082 16.7552V22H35.1067V20.9202H35.045C34.9456 21.119 34.7965 21.3144 34.5976 21.5064C34.3988 21.6983 34.1434 21.8577 33.8315 21.9846C33.5195 22.1114 33.1459 22.1748 32.7105 22.1748ZM33.0448 20.9408C33.4698 20.9408 33.8332 20.8568 34.1349 20.6888C34.44 20.5208 34.6713 20.3014 34.829 20.0306C34.9901 19.7564 35.0707 19.4633 35.0707 19.1514V18.1332C35.0159 18.1881 34.9096 18.2395 34.7519 18.2875C34.5976 18.3321 34.4211 18.3715 34.2223 18.4058C34.0235 18.4366 33.8298 18.4658 33.6412 18.4932C33.4527 18.5172 33.295 18.5377 33.1682 18.5549C32.8699 18.5926 32.5974 18.656 32.3506 18.7451C32.1072 18.8343 31.9118 18.9628 31.7644 19.1308C31.6204 19.2953 31.5485 19.5147 31.5485 19.789C31.5485 20.1695 31.689 20.4574 31.9701 20.6528C32.2512 20.8448 32.6094 20.9408 33.0448 20.9408ZM41.6126 22.1543C40.975 22.1543 40.4059 21.9914 39.9054 21.6658C39.4084 21.3367 39.0176 20.8688 38.7331 20.262C38.452 19.6518 38.3114 18.92 38.3114 18.0664C38.3114 17.2128 38.4537 16.4827 38.7382 15.8759C39.0262 15.2692 39.4204 14.8047 39.9209 14.4824C40.4213 14.1602 40.9887 13.9991 41.6229 13.9991C42.1131 13.9991 42.5073 14.0814 42.8055 14.2459C43.1072 14.407 43.3403 14.5956 43.5048 14.8115C43.6728 15.0275 43.803 15.2178 43.8956 15.3823H43.9882V11.4693H45.5256V22H44.0241V20.7711H43.8956C43.803 20.939 43.6694 21.131 43.4945 21.347C43.3231 21.5629 43.0866 21.7515 42.7849 21.9126C42.4833 22.0737 42.0925 22.1543 41.6126 22.1543ZM41.9519 20.8431C42.3941 20.8431 42.7678 20.7265 43.0729 20.4934C43.3814 20.2569 43.6145 19.9295 43.7722 19.5113C43.9333 19.0931 44.0139 18.6063 44.0139 18.051C44.0139 17.5025 43.935 17.0226 43.7773 16.6112C43.6196 16.1999 43.3883 15.8793 43.0832 15.6497C42.7781 15.42 42.401 15.3052 41.9519 15.3052C41.4892 15.3052 41.1035 15.4251 40.795 15.6651C40.4865 15.9051 40.2534 16.2324 40.0957 16.6472C39.9414 17.062 39.8643 17.5299 39.8643 18.051C39.8643 18.5789 39.9431 19.0537 40.1008 19.4753C40.2585 19.8969 40.4916 20.2312 40.8001 20.478C41.1121 20.7214 41.496 20.8431 41.9519 20.8431ZM51.0468 22.1594C50.3063 22.1594 49.6602 21.9897 49.1083 21.6503C48.5564 21.311 48.1279 20.8362 47.8228 20.226C47.5177 19.6158 47.3651 18.9028 47.3651 18.087C47.3651 17.2677 47.5177 16.5512 47.8228 15.9376C48.1279 15.324 48.5564 14.8475 49.1083 14.5082C49.6602 14.1688 50.3063 13.9991 51.0468 13.9991C51.7872 13.9991 52.4334 14.1688 52.9853 14.5082C53.5372 14.8475 53.9657 15.324 54.2708 15.9376C54.5759 16.5512 54.7284 17.2677 54.7284 18.087C54.7284 18.9028 54.5759 19.6158 54.2708 20.226C53.9657 20.8362 53.5372 21.311 52.9853 21.6503C52.4334 21.9897 51.7872 22.1594 51.0468 22.1594ZM51.0519 20.8688C51.5318 20.8688 51.9295 20.7419 52.2449 20.4883C52.5602 20.2346 52.7933 19.8969 52.9442 19.4753C53.0984 19.0537 53.1756 18.5892 53.1756 18.0818C53.1756 17.5779 53.0984 17.1151 52.9442 16.6935C52.7933 16.2684 52.5602 15.9273 52.2449 15.6702C51.9295 15.4131 51.5318 15.2846 51.0519 15.2846C50.5686 15.2846 50.1675 15.4131 49.8487 15.6702C49.5333 15.9273 49.2985 16.2684 49.1443 16.6935C48.9934 17.1151 48.918 17.5779 48.918 18.0818C48.918 18.5892 48.9934 19.0537 49.1443 19.4753C49.2985 19.8969 49.5333 20.2346 49.8487 20.4883C50.1675 20.7419 50.5686 20.8688 51.0519 20.8688ZM60.2766 24.9618V14.1019H61.7781V15.3823H61.9066C61.9957 15.2178 62.1243 15.0275 62.2923 14.8115C62.4602 14.5956 62.6933 14.407 62.9916 14.2459C63.2898 14.0814 63.684 13.9991 64.1742 13.9991C64.8118 13.9991 65.3809 14.1602 65.8814 14.4824C66.3818 14.8047 66.7743 15.2692 67.0589 15.8759C67.3468 16.4827 67.4908 17.2128 67.4908 18.0664C67.4908 18.92 67.3485 19.6518 67.064 20.262C66.7795 20.8688 66.3887 21.3367 65.8916 21.6658C65.3946 21.9914 64.8272 22.1543 64.1896 22.1543C63.7097 22.1543 63.3172 22.0737 63.0121 21.9126C62.7105 21.7515 62.4739 21.5629 62.3025 21.347C62.1311 21.131 61.9992 20.939 61.9066 20.7711H61.8141V24.9618H60.2766ZM61.7832 18.051C61.7832 18.6063 61.8638 19.0931 62.0249 19.5113C62.186 19.9295 62.4191 20.2569 62.7242 20.4934C63.0293 20.7265 63.4029 20.8431 63.8451 20.8431C64.3045 20.8431 64.6884 20.7214 64.9969 20.478C65.3055 20.2312 65.5386 19.8969 65.6962 19.4753C65.8574 19.0537 65.9379 18.5789 65.9379 18.051C65.9379 17.5299 65.8591 17.062 65.7014 16.6472C65.5471 16.2324 65.314 15.9051 65.0021 15.6651C64.6936 15.4251 64.3079 15.3052 63.8451 15.3052C63.3995 15.3052 63.0224 15.42 62.7139 15.6497C62.4088 15.8793 62.1774 16.1999 62.0197 16.6112C61.862 17.0226 61.7832 17.5025 61.7832 18.051ZM72.6173 22.1594C71.8392 22.1594 71.169 21.9931 70.6068 21.6606C70.0481 21.3247 69.6161 20.8533 69.311 20.2466C69.0094 19.6364 68.8585 18.9217 68.8585 18.1024C68.8585 17.2934 69.0094 16.5804 69.311 15.9633C69.6161 15.3463 70.0412 14.8647 70.5862 14.5184C71.1347 14.1722 71.7758 13.9991 72.5093 13.9991C72.955 13.9991 73.3869 14.0728 73.8051 14.2202C74.2233 14.3676 74.5987 14.599 74.9312 14.9144C75.2637 15.2297 75.526 15.6394 75.7179 16.1433C75.9099 16.6438 76.0059 17.2523 76.0059 17.9687V18.5137H69.7275V17.3619H74.4993C74.4993 16.9574 74.417 16.5992 74.2525 16.2873C74.0879 15.9719 73.8565 15.7234 73.5583 15.5417C73.2635 15.36 72.9173 15.2692 72.5196 15.2692C72.0877 15.2692 71.7106 15.3754 71.3884 15.588C71.0696 15.7971 70.8228 16.0713 70.6479 16.4107C70.4765 16.7466 70.3909 17.1117 70.3909 17.5059V18.4058C70.3909 18.9337 70.4834 19.3827 70.6685 19.753C70.8571 20.1232 71.1193 20.406 71.4552 20.6014C71.7912 20.7934 72.1837 20.8893 72.6327 20.8893C72.9241 20.8893 73.1898 20.8482 73.4298 20.7659C73.6697 20.6802 73.8771 20.5534 74.0519 20.3854C74.2268 20.2175 74.3604 20.0101 74.453 19.7632L75.9082 20.0255C75.7916 20.454 75.5825 20.8293 75.2809 21.1516C74.9826 21.4704 74.6073 21.7189 74.1548 21.8972C73.7057 22.072 73.1932 22.1594 72.6173 22.1594ZM79.2492 11.4693V22H77.7117V11.4693H79.2492ZM83.616 22.1748C83.1155 22.1748 82.663 22.0823 82.2585 21.8972C81.854 21.7086 81.5335 21.4361 81.297 21.0796C81.0639 20.7231 80.9473 20.286 80.9473 19.7684C80.9473 19.3228 81.033 18.956 81.2044 18.668C81.3758 18.3801 81.6072 18.1521 81.8986 17.9841C82.1899 17.8162 82.5156 17.6893 82.8755 17.6036C83.2355 17.5179 83.6023 17.4528 83.9759 17.4082C84.449 17.3534 84.8329 17.3088 85.1277 17.2745C85.4225 17.2368 85.6368 17.1768 85.7705 17.0946C85.9042 17.0123 85.971 16.8786 85.971 16.6935V16.6575C85.971 16.2084 85.8442 15.8605 85.5905 15.6137C85.3403 15.3669 84.9666 15.2435 84.4695 15.2435C83.9519 15.2435 83.544 15.3583 83.2458 15.588C82.951 15.8142 82.747 16.0662 82.6339 16.3438L81.189 16.0148C81.3604 15.5348 81.6106 15.1475 81.9397 14.8527C82.2722 14.5544 82.6544 14.3385 83.0864 14.2048C83.5183 14.0677 83.9725 13.9991 84.449 13.9991C84.7644 13.9991 85.0986 14.0368 85.4517 14.1122C85.8082 14.1842 86.1407 14.3179 86.4492 14.5133C86.7611 14.7087 87.0165 14.9881 87.2154 15.3514C87.4142 15.7114 87.5136 16.1793 87.5136 16.7552V22H86.0121V20.9202H85.9504C85.851 21.119 85.7019 21.3144 85.5031 21.5064C85.3043 21.6983 85.0489 21.8577 84.7369 21.9846C84.425 22.1114 84.0513 22.1748 83.616 22.1748ZM83.9502 20.9408C84.3753 20.9408 84.7386 20.8568 85.0403 20.6888C85.3454 20.5208 85.5768 20.3014 85.7345 20.0306C85.8956 19.7564 85.9761 19.4633 85.9761 19.1514V18.1332C85.9213 18.1881 85.815 18.2395 85.6573 18.2875C85.5031 18.3321 85.3265 18.3715 85.1277 18.4058C84.9289 18.4366 84.7352 18.4658 84.5467 18.4932C84.3581 18.5172 84.2005 18.5377 84.0736 18.5549C83.7754 18.5926 83.5029 18.656 83.256 18.7451C83.0127 18.8343 82.8173 18.9628 82.6699 19.1308C82.5259 19.2953 82.4539 19.5147 82.4539 19.789C82.4539 20.1695 82.5944 20.4574 82.8755 20.6528C83.1566 20.8448 83.5149 20.9408 83.9502 20.9408ZM93.5168 22V11.4693H95.1057V20.6322H99.8774V22H93.5168ZM101.567 22V14.1019H103.104V22H101.567ZM102.343 12.8833C102.076 12.8833 101.846 12.7942 101.654 12.6159C101.465 12.4342 101.371 12.2183 101.371 11.968C101.371 11.7144 101.465 11.4984 101.654 11.3201C101.846 11.1385 102.076 11.0476 102.343 11.0476C102.61 11.0476 102.838 11.1385 103.027 11.3201C103.219 11.4984 103.315 11.7144 103.315 11.968C103.315 12.2183 103.219 12.4342 103.027 12.6159C102.838 12.7942 102.61 12.8833 102.343 12.8833ZM106.71 11.4693V22H105.172V11.4693H106.71ZM111.077 22.1748C110.576 22.1748 110.124 22.0823 109.719 21.8972C109.315 21.7086 108.994 21.4361 108.758 21.0796C108.525 20.7231 108.408 20.286 108.408 19.7684C108.408 19.3228 108.494 18.956 108.665 18.668C108.836 18.3801 109.068 18.1521 109.359 17.9841C109.651 17.8162 109.976 17.6893 110.336 17.6036C110.696 17.5179 111.063 17.4528 111.437 17.4082C111.91 17.3534 112.294 17.3088 112.588 17.2745C112.883 17.2368 113.097 17.1768 113.231 17.0946C113.365 17.0123 113.432 16.8786 113.432 16.6935V16.6575C113.432 16.2084 113.305 15.8605 113.051 15.6137C112.801 15.3669 112.427 15.2435 111.93 15.2435C111.413 15.2435 111.005 15.3583 110.706 15.588C110.412 15.8142 110.208 16.0662 110.095 16.3438L108.65 16.0148C108.821 15.5348 109.071 15.1475 109.4 14.8527C109.733 14.5544 110.115 14.3385 110.547 14.2048C110.979 14.0677 111.433 13.9991 111.91 13.9991C112.225 13.9991 112.559 14.0368 112.912 14.1122C113.269 14.1842 113.601 14.3179 113.91 14.5133C114.222 14.7087 114.477 14.9881 114.676 15.3514C114.875 15.7114 114.974 16.1793 114.974 16.7552V22H113.473V20.9202H113.411C113.312 21.119 113.163 21.3144 112.964 21.5064C112.765 21.6983 112.51 21.8577 112.198 21.9846C111.886 22.1114 111.512 22.1748 111.077 22.1748ZM111.411 20.9408C111.836 20.9408 112.199 20.8568 112.501 20.6888C112.806 20.5208 113.037 20.3014 113.195 20.0306C113.356 19.7564 113.437 19.4633 113.437 19.1514V18.1332C113.382 18.1881 113.276 18.2395 113.118 18.2875C112.964 18.3321 112.787 18.3715 112.588 18.4058C112.39 18.4366 112.196 18.4658 112.007 18.4932C111.819 18.5172 111.661 18.5377 111.534 18.5549C111.236 18.5926 110.964 18.656 110.717 18.7451C110.473 18.8343 110.278 18.9628 110.131 19.1308C109.987 19.2953 109.915 19.5147 109.915 19.789C109.915 20.1695 110.055 20.4574 110.336 20.6528C110.617 20.8448 110.976 20.9408 111.411 20.9408Z" fill="white"/>
<defs>
<linearGradient id="paint0_linear_1235_1705" x1="81.2567" y1="35.2341" x2="166.754" y2="16.495" gradientUnits="userSpaceOnUse">
<stop stop-color="#7839EE"/>
<stop offset="0.475" stop-color="#3989F4"/>
<stop offset="1" stop-color="#01D0FA"/>
</linearGradient>
</defs>
</svg>
