<svg width="70" height="42" viewBox="0 0 70 42" fill="none" xmlns="http://www.w3.org/2000/svg">
<path fill-rule="evenodd" clip-rule="evenodd" d="M24.627 9.76266C24.627 8.67484 25.058 7.63135 25.8258 6.86073L31.2323 1.45421C32.0029 0.685711 33.0468 0.25415 34.1351 0.25415C35.2233 0.25415 36.2672 0.685711 37.0378 1.45421L42.4451 6.86073C43.2129 7.63135 43.644 8.67484 43.644 9.76266C43.644 10.8505 43.2129 11.894 42.4451 12.6646L37.0378 18.0711C36.2672 18.8396 35.2233 19.2712 34.1351 19.2712C33.0468 19.2712 32.0029 18.8396 31.2323 18.0711L25.8258 12.6646C25.058 11.894 24.627 10.8505 24.627 9.76266ZM31.0736 9.76266L34.1351 6.70112L37.1971 9.76266L34.1351 12.8242L31.0736 9.76266ZM8.08284 28.5318C9.53998 30.6453 11.772 32.6503 14.7888 34.1053C17.9141 35.6127 21.0877 36.1415 23.8831 35.9428C22.426 33.8293 20.194 31.8243 17.1771 30.3692C14.0519 28.8619 10.8782 28.3331 8.08284 28.5318ZM0.423584 24.7325C5.73504 22.0095 13.0291 21.9706 19.6806 25.1787C26.3323 28.3869 30.6514 34.0273 31.5424 39.7421C26.2309 42.4651 18.9368 42.504 12.2853 39.2959C5.6336 36.0876 1.31454 30.4473 0.423584 24.7325ZM61.9173 28.5318C59.122 28.3331 55.9483 28.8619 52.823 30.3692C49.8062 31.8243 47.5742 33.8293 46.1171 35.9428C48.9124 36.1415 52.0861 35.6127 55.2114 34.1053C58.2282 32.6503 60.4602 30.6453 61.9173 28.5318ZM38.4578 39.7421C43.7693 42.4651 51.0634 42.504 57.7149 39.2959C64.3666 36.0876 68.6856 30.4473 69.5766 24.7325C64.2651 22.0095 56.971 21.9706 50.3195 25.1787C43.6678 28.3869 39.3488 34.0273 38.4578 39.7421Z" fill="url(#paint0_linear_993_2453)"/>
<defs>
<linearGradient id="paint0_linear_993_2453" x1="35" y1="40.5933" x2="35" y2="3.13552" gradientUnits="userSpaceOnUse">
<stop stop-color="#7839EE"/>
<stop offset="1" stop-color="#01D0FA"/>
</linearGradient>
</defs>
</svg>
