<svg width="18" height="18" viewBox="0 0 18 18" fill="none" xmlns="http://www.w3.org/2000/svg">
<g id="elements">
<path id="Path" d="M4.83325 4.83333C8.07399 3.72222 9.92584 3.72222 13.1666 4.83333" stroke="#313854" stroke-width="1.25" stroke-linecap="round" stroke-linejoin="round"/>
<path id="Path_2" d="M4.83325 13.1667C7.74992 14.2778 10.2499 14.2778 13.1666 13.1667" stroke="#313854" stroke-width="1.25" stroke-linecap="round" stroke-linejoin="round"/>
<path id="Path_3" d="M6.38094 13.6875C6.38094 14.625 4.61346 16.5 4.16013 16.5C2.7992 16.5 1.59065 14.9372 0.985896 13.6875C0.381144 12.1247 0.53257 8.21906 2.34587 2.90625C3.66776 1.95469 4.99536 1.65 6.38105 1.5L7.33342 4" stroke="#313854" stroke-width="1.25" stroke-linecap="round" stroke-linejoin="round"/>
<path id="Path_4" d="M11.6191 13.6875C11.6191 14.625 13.3865 16.5 13.8399 16.5C15.2008 16.5 16.4094 14.9372 17.0141 13.6875C17.6189 12.1247 17.4674 8.21906 15.6541 2.90625C14.3322 1.95469 13.0046 1.65 11.619 1.5L10.6666 4" stroke="#313854" stroke-width="1.25" stroke-linecap="round" stroke-linejoin="round"/>
<path id="Vector" d="M5.25841 9H5.25M12.75 9H12.7416" stroke="#313854" stroke-width="1.66667" stroke-linecap="round" stroke-linejoin="round"/>
</g>
</svg>
