<svg width="18" height="18" viewBox="0 0 18 18" fill="none" xmlns="http://www.w3.org/2000/svg">
<g id="elements">
<path id="Vector 7270" d="M1.5 8.16666L1.5 11.9167C1.5 14.2737 1.5 15.4522 2.23223 16.1844C2.96447 16.9167 4.14298 16.9167 6.5 16.9167H11.5C13.857 16.9167 15.0355 16.9167 15.7678 16.1844C16.5 15.4522 16.5 14.2737 16.5 11.9167V8.16666" stroke="#313854" stroke-width="1.25"/>
<path id="Ellipse 1951" d="M11.5 13.1667C10.9299 13.6727 10.0223 14 9 14C7.97771 14 7.07008 13.6727 6.5 13.1667" stroke="#313854" stroke-width="1.25" stroke-linecap="round"/>
<path id="Vector" d="M5.64234 6.5L6.24608 6.33838C6.16497 6.03538 5.87183 5.83943 5.56084 5.88034C5.24984 5.92124 5.01734 6.18633 5.01734 6.5H5.64234ZM0.76131 7.36704L1.347 7.14888H1.347L0.76131 7.36704ZM17.2389 7.36704L16.6532 7.14888L16.6532 7.14888L17.2389 7.36704ZM12.3578 6.5H12.9828C12.9828 6.18633 12.7503 5.92124 12.4393 5.88034C12.1283 5.83943 11.8352 6.03538 11.7541 6.33838L12.3578 6.5ZM1.04814 5.73142L1.58981 6.04321L1.58981 6.04321L1.04814 5.73142ZM1.85119 4.33629L1.30952 4.0245H1.30952L1.85119 4.33629ZM16.952 5.73142L16.4103 6.04321L16.952 5.73142ZM16.149 4.33629L16.6906 4.0245V4.02449L16.149 4.33629ZM17.3228 6.69077L16.7 6.74264V6.74264L17.3228 6.69077ZM0.677366 6.69077L0.0545219 6.63891L0.677366 6.69077ZM5.01734 6.5C5.01734 7.53124 4.17399 8.375 3.12404 8.375V9.625C4.85573 9.625 6.26734 8.23018 6.26734 6.5H5.01734ZM3.12404 8.375C2.30743 8.375 1.61315 7.86339 1.347 7.14888L0.175623 7.58521C0.619701 8.77739 1.77314 9.625 3.12404 9.625V8.375ZM16.6532 7.14888C16.387 7.86339 15.6927 8.375 14.8761 8.375V9.625C16.227 9.625 17.3805 8.77739 17.8245 7.58521L16.6532 7.14888ZM14.8761 8.375C13.8262 8.375 12.9828 7.53124 12.9828 6.5H11.7328C11.7328 8.23018 13.1444 9.625 14.8761 9.625V8.375ZM9.00008 8.375C7.65953 8.375 6.55573 7.49509 6.24608 6.33838L5.0386 6.66162C5.49869 8.38029 7.10971 9.625 9.00008 9.625V8.375ZM11.7541 6.33838C11.4444 7.49509 10.3406 8.375 9.00008 8.375V9.625C10.8905 9.625 12.5015 8.38029 12.9616 6.66162L11.7541 6.33838ZM1.58981 6.04321L2.39287 4.64808L1.30952 4.0245L0.506468 5.41963L1.58981 6.04321ZM17.4937 5.41963L16.6906 4.0245L15.6073 4.64808L16.4103 6.04321L17.4937 5.41963ZM3.92934 1.70833H14.0708V0.458334H3.92934V1.70833ZM16.3406 2.71612C16.3406 1.46489 15.3201 0.458334 14.0708 0.458334V1.70833C14.6383 1.70833 15.0906 2.16382 15.0906 2.71612H16.3406ZM16.6906 4.02449C16.4611 3.62574 16.3406 3.17477 16.3406 2.71612H15.0906C15.0906 3.39405 15.2688 4.06 15.6073 4.64808L16.6906 4.02449ZM2.9096 2.71612C2.9096 2.16382 3.36185 1.70833 3.92934 1.70833V0.458334C2.68011 0.458334 1.6596 1.46489 1.6596 2.71612H2.9096ZM17.8245 7.58521C17.8603 7.48929 17.912 7.35577 17.9384 7.18701C17.9648 7.01927 17.9628 6.84547 17.9456 6.63891L16.7 6.74264C16.7134 6.9046 16.7078 6.96636 16.7035 6.99333C16.6995 7.01929 16.6939 7.03963 16.6532 7.14888L17.8245 7.58521ZM16.4103 6.04321C16.6395 6.44139 16.6821 6.52862 16.7 6.74264L17.9456 6.63891C17.9021 6.11587 17.7179 5.80922 17.4937 5.41963L16.4103 6.04321ZM2.39287 4.64808C2.73137 4.06 2.9096 3.39405 2.9096 2.71612H1.6596C1.6596 3.17477 1.53905 3.62574 1.30952 4.0245L2.39287 4.64808ZM1.347 7.14888C1.3063 7.03963 1.3007 7.01929 1.29662 6.99333C1.29239 6.96636 1.28672 6.9046 1.30021 6.74264L0.0545219 6.63891C0.0373214 6.84547 0.0354123 7.01927 0.0617207 7.18701C0.0881879 7.35577 0.139896 7.48929 0.175623 7.58521L1.347 7.14888ZM0.506468 5.41963C0.282215 5.80921 0.0980754 6.11587 0.0545219 6.63891L1.30021 6.74264C1.31803 6.52862 1.36062 6.44139 1.58981 6.04321L0.506468 5.41963Z" fill="#313854"/>
</g>
</svg>
