<svg width="18" height="18" viewBox="0 0 18 18" fill="none" xmlns="http://www.w3.org/2000/svg">
<g id="elements">
<path id="Rectangle 2057" d="M0.666748 14C0.666748 12.7163 0.666748 12.0744 0.955689 11.6029C1.11737 11.3391 1.33919 11.1173 1.60303 10.9556C2.07453 10.6667 2.71638 10.6667 4.00008 10.6667C5.28378 10.6667 5.92563 10.6667 6.39714 10.9556C6.66097 11.1173 6.8828 11.3391 7.04447 11.6029C7.33341 12.0744 7.33341 12.7163 7.33341 14C7.33341 15.2837 7.33341 15.9255 7.04447 16.3971C6.8828 16.6609 6.66097 16.8827 6.39714 17.0444C5.92563 17.3333 5.28378 17.3333 4.00008 17.3333C2.71638 17.3333 2.07453 17.3333 1.60303 17.0444C1.33919 16.8827 1.11737 16.6609 0.955689 16.3971C0.666748 15.9255 0.666748 15.2837 0.666748 14Z" stroke="#313854" stroke-width="1.25"/>
<path id="Rectangle 2058" d="M10.6667 14C10.6667 12.7163 10.6667 12.0744 10.9557 11.6029C11.1174 11.3391 11.3392 11.1173 11.603 10.9556C12.0745 10.6667 12.7164 10.6667 14.0001 10.6667C15.2838 10.6667 15.9256 10.6667 16.3971 10.9556C16.661 11.1173 16.8828 11.3391 17.0445 11.6029C17.3334 12.0744 17.3334 12.7163 17.3334 14C17.3334 15.2837 17.3334 15.9255 17.0445 16.3971C16.8828 16.6609 16.661 16.8827 16.3971 17.0444C15.9256 17.3333 15.2838 17.3333 14.0001 17.3333C12.7164 17.3333 12.0745 17.3333 11.603 17.0444C11.3392 16.8827 11.1174 16.6609 10.9557 16.3971C10.6667 15.9255 10.6667 15.2837 10.6667 14Z" stroke="#313854" stroke-width="1.25"/>
<path id="Rectangle 2059" d="M0.666748 4C0.666748 2.7163 0.666748 2.07445 0.955689 1.60295C1.11737 1.33911 1.33919 1.11729 1.60303 0.955609C2.07453 0.666668 2.71638 0.666668 4.00008 0.666668C5.28378 0.666668 5.92563 0.666668 6.39714 0.955609C6.66097 1.11729 6.8828 1.33911 7.04447 1.60295C7.33341 2.07445 7.33341 2.7163 7.33341 4C7.33341 5.2837 7.33341 5.92555 7.04447 6.39706C6.8828 6.66089 6.66097 6.88272 6.39714 7.04439C5.92563 7.33333 5.28378 7.33333 4.00008 7.33333C2.71638 7.33333 2.07453 7.33333 1.60303 7.04439C1.33919 6.88272 1.11737 6.66089 0.955689 6.39706C0.666748 5.92555 0.666748 5.2837 0.666748 4Z" stroke="#313854" stroke-width="1.25"/>
<path id="Rectangle 2060" d="M10.6667 4C10.6667 2.7163 10.6667 2.07445 10.9557 1.60295C11.1174 1.33911 11.3392 1.11729 11.603 0.955609C12.0745 0.666668 12.7164 0.666668 14.0001 0.666668C15.2838 0.666668 15.9256 0.666668 16.3971 0.955609C16.661 1.11729 16.8828 1.33911 17.0445 1.60295C17.3334 2.07445 17.3334 2.7163 17.3334 4C17.3334 5.2837 17.3334 5.92555 17.0445 6.39706C16.8828 6.66089 16.661 6.88272 16.3971 7.04439C15.9256 7.33333 15.2838 7.33333 14.0001 7.33333C12.7164 7.33333 12.0745 7.33333 11.603 7.04439C11.3392 6.88272 11.1174 6.66089 10.9557 6.39706C10.6667 5.92555 10.6667 5.2837 10.6667 4Z" stroke="#313854" stroke-width="1.25"/>
</g>
</svg>
