<svg width="42" height="42" viewBox="0 0 42 42" fill="none" xmlns="http://www.w3.org/2000/svg">
<rect width="42" height="42" rx="8" fill="#F6F7FB"/>
<path opacity="0.4" d="M12.501 18.9972V25.179C12.501 26.8722 12.501 27.7188 12.7689 28.395C13.1997 29.4821 14.1108 30.3395 15.2658 30.7449C15.9842 30.9972 16.8837 30.9972 18.6828 30.9972C21.8312 30.9972 23.4054 30.9972 24.6626 30.5558C26.0545 30.0672 27.2438 29.2036 28.0958 28.0919L24.3361 24.3323L13.082 13.0781C12.501 14.2811 12.501 16.0719 12.501 18.9972Z" fill="#8D95B3"/>
<path fill-rule="evenodd" clip-rule="evenodd" d="M11.5313 10.4697C11.2384 10.1768 10.7635 10.1768 10.4706 10.4697C10.1778 10.7626 10.1778 11.2374 10.4706 11.5303L12.2442 13.3039C11.9509 14.5089 11.829 16.107 11.78 18.0553C11.7352 19.8379 11.751 21.9683 11.7694 24.4364C11.7728 24.8855 11.7762 25.3458 11.7793 25.8171C11.7847 26.6162 11.8205 27.5131 12.0948 28.3829C12.303 29.0431 12.596 29.6207 13.0598 30.1182C13.5207 30.6126 14.1107 30.9854 14.8495 31.2983C15.5497 31.5947 16.2896 31.6816 16.9748 31.6816H19.5067C19.517 31.6818 19.5274 31.6818 19.5378 31.6816H21.0185L21.0368 31.6814C22.9353 31.6352 24.3769 31.5142 25.5696 31.0847C26.6079 30.7109 27.4172 30.1198 28.1837 29.2434L30.4706 31.5303C30.7635 31.8232 31.2384 31.8232 31.5313 31.5303C31.8242 31.2374 31.8242 30.7626 31.5313 30.4697L11.5313 10.4697ZM27.1203 28.18L24.2089 25.2686C24.0383 25.3307 23.8723 25.4733 23.7446 25.6998C23.6105 25.9377 23.5494 26.2179 23.5654 26.4552C23.7284 28.0578 23.5085 29.134 22.7135 29.9388C22.6523 30.0007 22.5888 30.0599 22.5233 30.1166C23.5994 30.0434 24.3997 29.9117 25.0615 29.6734C25.8389 29.3935 26.4628 28.9514 27.1203 28.18ZM23.1161 24.1758L13.5257 14.5854C13.3903 15.5087 13.3154 16.67 13.2796 18.0931C13.2354 19.8489 13.251 21.9498 13.2693 24.4196C13.2727 24.8698 13.2761 25.3323 13.2793 25.8071C13.2845 26.5888 13.3235 27.2917 13.5254 27.9318C13.6859 28.4409 13.8843 28.8028 14.157 29.0954C14.4326 29.391 14.8242 29.6586 15.4343 29.9169C15.8855 30.1079 16.4068 30.1816 16.9748 30.1816H19.3435C19.5913 30.0577 19.8064 29.9541 20.0052 29.8583C20.2649 29.7332 20.4968 29.6215 20.7375 29.4954C21.163 29.2727 21.4467 29.0867 21.6464 28.8847C21.9803 28.5466 22.2187 28.0241 22.072 26.597L22.0703 26.5769C22.0289 26.0297 22.1628 25.4513 22.4379 24.9632C22.6025 24.6713 22.8285 24.3938 23.1161 24.1758Z" fill="#8D95B3"/>
<path d="M15.8135 12.3037C16.7078 12.0354 18.5544 11.8535 20.664 11.8237C22.752 11.7942 24.9891 11.9148 26.6286 12.2061C27.2491 12.3164 27.8562 12.7263 28.1749 13.245C28.7515 14.1836 28.7511 15.2836 28.7506 16.6736L28.7506 16.7889L28.6906 21.0464C28.5729 21.7378 28.4848 22.1228 28.3439 22.4283C28.2124 22.7133 28.0134 22.9723 27.5765 23.3469C27.262 23.6165 27.2256 24.09 27.4952 24.4045C27.7649 24.7189 28.2383 24.7553 28.5528 24.4857C28.5835 24.4593 28.6137 24.4331 28.6433 24.407L28.6316 25.2384C28.6258 25.6526 28.9568 25.9931 29.371 25.9989C29.7851 26.0048 30.1256 25.6737 30.1314 25.2596L30.2506 16.8047V16.7942C30.2506 16.7124 30.2509 16.6295 30.2511 16.5455L30.2511 16.5443C30.2548 15.276 30.2591 13.772 29.4529 12.4597C28.9034 11.5653 27.9207 10.9122 26.891 10.7292C25.1232 10.4151 22.7824 10.2936 20.6428 10.3238C18.5248 10.3537 16.4941 10.5334 15.3824 10.867C14.9857 10.986 14.7606 11.4042 14.8796 11.8009C14.9987 12.1977 15.4168 12.4228 15.8135 12.3037Z" fill="#8D95B3"/>
</svg>
