<svg width="42" height="42" viewBox="0 0 42 42" fill="none" xmlns="http://www.w3.org/2000/svg">
<rect width="42" height="42" rx="8" fill="#EFF8FF"/>
<path opacity="0.4" d="M12.8912 29.1088C11.5 27.7175 11.5 25.4783 11.5 21C11.5 19.8633 11.5 18.8709 11.5227 18H30.4773C30.5 18.8709 30.5 19.8633 30.5 21C30.5 25.4783 30.5 27.7175 29.1088 29.1088C27.7175 30.5 25.4783 30.5 21 30.5C16.5217 30.5 14.2825 30.5 12.8912 29.1088Z" fill="#53B1FD"/>
<path fill-rule="evenodd" clip-rule="evenodd" d="M20.9428 10.75H21.0572C23.2479 10.75 24.9686 10.75 26.312 10.9306C27.6886 11.1157 28.7809 11.5027 29.6391 12.3609C30.4973 13.2191 30.8843 14.3114 31.0694 15.688C31.25 17.0314 31.25 18.7521 31.25 20.9428V21.0572C31.25 23.2479 31.25 24.9686 31.0694 26.312C30.8843 27.6886 30.4973 28.7809 29.6391 29.6391C28.7809 30.4973 27.6886 30.8843 26.312 31.0694C24.9686 31.25 23.2479 31.25 21.0572 31.25H20.9428C18.7521 31.25 17.0314 31.25 15.688 31.0694C14.3114 30.8843 13.2191 30.4973 12.3609 29.6391C11.5027 28.7809 11.1157 27.6886 10.9306 26.312C10.75 24.9686 10.75 23.2479 10.75 21.0572V20.9428C10.75 18.7521 10.75 17.0314 10.9306 15.688C11.1157 14.3114 11.5027 13.2191 12.3609 12.3609C13.2191 11.5027 14.3114 11.1157 15.688 10.9306C17.0314 10.75 18.7521 10.75 20.9428 10.75ZM21.75 29.7497C23.6254 29.7475 25.0209 29.7295 26.1121 29.5828C27.3224 29.4201 28.0454 29.1115 28.5784 28.5784C29.0104 28.1464 29.295 27.5897 29.474 26.75H21.75V29.7497ZM20.25 26.75V29.7497C18.3746 29.7475 16.9791 29.7295 15.8879 29.5828C14.6776 29.4201 13.9546 29.1115 13.4216 28.5784C12.9896 28.1464 12.705 27.5897 12.526 26.75H20.25ZM21.75 25.25H29.6693C29.7206 24.5394 29.7393 23.7168 29.7461 22.75H21.75V25.25ZM20.25 22.75V25.25H12.3307C12.2794 24.5394 12.2607 23.7168 12.2539 22.75H20.25ZM21.75 21.25H29.75L29.75 21C29.75 20.1673 29.7498 19.4215 29.7412 18.75H21.75V21.25ZM20.25 18.75V21.25H12.25L12.25 21C12.25 20.1673 12.2502 19.4215 12.2588 18.75H20.25ZM20.9991 17.25C20.9989 17.25 20.9994 17.25 20.9991 17.25C20.9994 17.25 21.0006 17.25 21.0009 17.25L29.6993 17.25C29.6746 16.7472 29.6377 16.2962 29.5828 15.8879C29.4201 14.6776 29.1115 13.9546 28.5784 13.4216C28.0454 12.8885 27.3224 12.5799 26.1121 12.4172C24.8802 12.2516 23.2604 12.25 21 12.25C18.7396 12.25 17.1198 12.2516 15.8879 12.4172C14.6776 12.5799 13.9546 12.8885 13.4216 13.4216C12.8885 13.9546 12.5799 14.6776 12.4172 15.8879C12.3623 16.2962 12.3254 16.7472 12.3007 17.25L20.9991 17.25Z" fill="#53B1FD"/>
</svg>
