<svg width="43" height="42" viewBox="0 0 43 42" fill="none" xmlns="http://www.w3.org/2000/svg">
<rect x="0.5" width="42" height="42" rx="8" fill="#EBFBFF"/>
<path opacity="0.4" d="M12 21C12 23.8284 12 25.2426 12.8787 26.1213C13.7574 27 15.1716 27 18 27H25C27.8284 27 29.2426 27 30.1213 26.1213C31 25.2426 31 23.8284 31 21V17C31 14.1716 31 12.7574 30.1213 11.8787C29.2426 11 27.8284 11 25 11H18C15.1716 11 13.7574 11 12.8787 11.8787C12 12.7574 12 14.1716 12 17V21Z" fill="url(#paint0_linear_896_403)" fill-opacity="0.6"/>
<path d="M22.25 16C22.25 15.5858 21.9142 15.25 21.5 15.25C21.0858 15.25 20.75 15.5858 20.75 16V22C20.75 22.4142 21.0858 22.75 21.5 22.75C21.9142 22.75 22.25 22.4142 22.25 22V16Z" fill="url(#paint1_linear_896_403)"/>
<path d="M18.25 19C18.25 18.5858 17.9142 18.25 17.5 18.25C17.0858 18.25 16.75 18.5858 16.75 19V22C16.75 22.4142 17.0858 22.75 17.5 22.75C17.9142 22.75 18.25 22.4142 18.25 22V19Z" fill="url(#paint2_linear_896_403)"/>
<path d="M26.25 20C26.25 19.5858 25.9142 19.25 25.5 19.25C25.0858 19.25 24.75 19.5858 24.75 20V22C24.75 22.4142 25.0858 22.75 25.5 22.75C25.9142 22.75 26.25 22.4142 26.25 22V20Z" fill="url(#paint3_linear_896_403)"/>
<path fill-rule="evenodd" clip-rule="evenodd" d="M17.9451 10.25H25.0549C26.4225 10.25 27.5248 10.25 28.3918 10.3665C29.2919 10.4875 30.0497 10.7464 30.6517 11.3484C31.2536 11.9503 31.5125 12.7081 31.6335 13.6083C31.75 14.4752 31.75 15.5775 31.75 16.9451V21.0549C31.75 22.4225 31.75 23.5248 31.6335 24.3918C31.5125 25.2919 31.2536 26.0497 30.6517 26.6517C30.0497 27.2536 29.2919 27.5125 28.3918 27.6335C27.6515 27.733 26.7397 27.7475 25.6376 27.7496L28.9685 30.4144C29.292 30.6731 29.3444 31.1451 29.0857 31.4685C28.8269 31.792 28.355 31.8444 28.0315 31.5857L23.2369 27.75H22.25V31C22.25 31.4142 21.9142 31.75 21.5 31.75C21.0858 31.75 20.75 31.4142 20.75 31V27.75H19.7631L14.9685 31.5857C14.6451 31.8444 14.1731 31.792 13.9144 31.4685C13.6556 31.1451 13.7081 30.6731 14.0315 30.4144L17.3624 27.7496C16.2604 27.7475 15.3485 27.733 14.6083 27.6335C13.7081 27.5125 12.9503 27.2536 12.3484 26.6517C11.7464 26.0497 11.4875 25.2919 11.3665 24.3918C11.25 23.5248 11.25 22.4225 11.25 21.0549V16.9451C11.25 15.5775 11.25 14.4752 11.3665 13.6083C11.4875 12.7081 11.7464 11.9503 12.3484 11.3484C12.9503 10.7464 13.7081 10.4875 14.6083 10.3665C15.4752 10.25 16.5775 10.25 17.9451 10.25ZM25 26.25H21.5017L21.5 26.25L21.4983 26.25H18C16.5646 26.25 15.5635 26.2484 14.8081 26.1469C14.0743 26.0482 13.6858 25.8678 13.409 25.591C13.1322 25.3142 12.9518 24.9257 12.8531 24.1919C12.7516 23.4365 12.75 22.4354 12.75 21V17C12.75 15.5646 12.7516 14.5635 12.8531 13.8081C12.9518 13.0743 13.1322 12.6858 13.409 12.409C13.6858 12.1322 14.0743 11.9518 14.8081 11.8531C15.5635 11.7516 16.5646 11.75 18 11.75H25C26.4354 11.75 27.4365 11.7516 28.1919 11.8531C28.9257 11.9518 29.3142 12.1322 29.591 12.409C29.8678 12.6858 30.0482 13.0743 30.1469 13.8081C30.2484 14.5635 30.25 15.5646 30.25 17V21C30.25 22.4354 30.2484 23.4365 30.1469 24.1919C30.0482 24.9257 29.8678 25.3142 29.591 25.591C29.3142 25.8678 28.9257 26.0482 28.1919 26.1469C27.4365 26.2484 26.4354 26.25 25 26.25Z" fill="url(#paint4_linear_896_403)"/>
<defs>
<linearGradient id="paint0_linear_896_403" x1="10.48" y1="15.4444" x2="32.916" y2="15.5485" gradientUnits="userSpaceOnUse">
<stop stop-color="#7839EE"/>
<stop offset="1" stop-color="#11BFFA"/>
</linearGradient>
<linearGradient id="paint1_linear_896_403" x1="30" y1="11" x2="11" y2="31.5" gradientUnits="userSpaceOnUse">
<stop stop-color="#37D8F8"/>
<stop offset="1" stop-color="#9C50FF"/>
</linearGradient>
<linearGradient id="paint2_linear_896_403" x1="30" y1="11" x2="11" y2="31.5" gradientUnits="userSpaceOnUse">
<stop stop-color="#37D8F8"/>
<stop offset="1" stop-color="#9C50FF"/>
</linearGradient>
<linearGradient id="paint3_linear_896_403" x1="30" y1="11" x2="11" y2="31.5" gradientUnits="userSpaceOnUse">
<stop stop-color="#37D8F8"/>
<stop offset="1" stop-color="#9C50FF"/>
</linearGradient>
<linearGradient id="paint4_linear_896_403" x1="30" y1="11" x2="11" y2="31.5" gradientUnits="userSpaceOnUse">
<stop stop-color="#37D8F8"/>
<stop offset="1" stop-color="#9C50FF"/>
</linearGradient>
</defs>
</svg>
