<svg width="42" height="42" viewBox="0 0 42 42" fill="none" xmlns="http://www.w3.org/2000/svg">
<rect width="42" height="42" rx="8" fill="#FFFAEB"/>
<g opacity="0.4">
<path d="M19 11C17.3453 11 17 11.3453 17 13C17 14.6547 17.3453 15 19 15H23C24.6547 15 25 14.6547 25 13C25 11.3453 24.6547 11 23 11H19Z" fill="#FDB022"/>
<path d="M19 27C17.3453 27 17 27.3453 17 29C17 30.6547 17.3453 31 19 31H23C24.6547 31 25 30.6547 25 29C25 27.3453 24.6547 27 23 27H19Z" fill="#FDB022"/>
</g>
<path fill-rule="evenodd" clip-rule="evenodd" d="M19 10.25C18.5701 10.25 18.1737 10.2714 17.8285 10.3473C17.4748 10.425 17.1287 10.5697 16.8492 10.8492C16.5697 11.1287 16.425 11.4748 16.3473 11.8285C16.3179 11.9621 16.2967 12.1034 16.2818 12.2514C15.6728 12.2553 15.1467 12.2706 14.7055 12.3299C14.0777 12.4143 13.5109 12.6 13.0555 13.0555C12.6 13.5109 12.4143 14.0777 12.3299 14.7055C12.2499 15.3003 12.25 16.0495 12.25 16.948V17.052C12.25 17.9505 12.2499 18.6997 12.3299 19.2945C12.4143 19.9223 12.6 20.4891 13.0555 20.9445C13.5109 21.4 14.0777 21.5857 14.7055 21.6701C15.3003 21.7501 16.0495 21.75 16.948 21.75L17.4494 21.75C17.5081 21.8576 17.5758 21.9574 17.6468 22.0503C17.8397 22.3032 18.1135 22.5769 18.4105 22.8739L19.1262 23.5895C19.4231 23.8865 19.6968 24.1603 19.9497 24.3532C20.0426 24.4242 20.1424 24.4919 20.25 24.5506V26.25H19C18.5701 26.25 18.1737 26.2714 17.8285 26.3473C17.4748 26.425 17.1287 26.5697 16.8492 26.8492C16.5697 27.1287 16.425 27.4748 16.3473 27.8285C16.2714 28.1737 16.25 28.5701 16.25 29C16.25 29.4299 16.2714 29.8263 16.3473 30.1715C16.425 30.5252 16.5697 30.8713 16.8492 31.1508C17.1287 31.4303 17.4748 31.575 17.8285 31.6527C18.1737 31.7286 18.5701 31.75 19 31.75H23C23.4299 31.75 23.8263 31.7286 24.1715 31.6527C24.5252 31.575 24.8713 31.4303 25.1508 31.1508C25.4303 30.8713 25.575 30.5252 25.6527 30.1715C25.6821 30.0379 25.7033 29.8966 25.7182 29.7486C26.3272 29.7447 26.8533 29.7294 27.2945 29.6701C27.9223 29.5857 28.4891 29.4 28.9445 28.9445C29.4 28.4891 29.5857 27.9223 29.6701 27.2945C29.7501 26.6997 29.75 25.9505 29.75 25.052V24.948C29.75 24.0495 29.7501 23.3003 29.6701 22.7055C29.5857 22.0777 29.4 21.5109 28.9445 21.0555C28.4891 20.6 27.9223 20.4143 27.2945 20.3299C26.6997 20.2499 25.9505 20.25 25.052 20.25L24.5506 20.25C24.4919 20.1424 24.4242 20.0426 24.3532 19.9497C24.1603 19.6968 23.8865 19.4231 23.5895 19.1262L22.8738 18.4105C22.5769 18.1135 22.3032 17.8397 22.0503 17.6468C21.9574 17.5758 21.8576 17.5081 21.75 17.4494V15.75H23C23.4299 15.75 23.8263 15.7286 24.1715 15.6527C24.5252 15.575 24.8713 15.4303 25.1508 15.1508C25.4303 14.8713 25.575 14.5252 25.6527 14.1715C25.7286 13.8263 25.75 13.4299 25.75 13C25.75 12.5701 25.7286 12.1737 25.6527 11.8285C25.575 11.4748 25.4303 11.1287 25.1508 10.8492C24.8713 10.5697 24.5252 10.425 24.1715 10.3473C23.8263 10.2714 23.4299 10.25 23 10.25H19ZM23 14.25C23.3974 14.25 23.6647 14.2283 23.8496 14.1877C24.0261 14.1489 24.0765 14.1038 24.0902 14.0902C24.1038 14.0765 24.1489 14.0261 24.1877 13.8496C24.2283 13.6647 24.25 13.3974 24.25 13C24.25 12.6026 24.2283 12.3353 24.1877 12.1504C24.1489 11.9739 24.1038 11.9235 24.0902 11.9098C24.0765 11.8962 24.0261 11.8511 23.8496 11.8123C23.6647 11.7717 23.3974 11.75 23 11.75H19C18.6026 11.75 18.3353 11.7717 18.1504 11.8123C17.974 11.8511 17.9235 11.8962 17.9098 11.9098C17.8962 11.9235 17.8511 11.9739 17.8123 12.1504C17.7717 12.3353 17.75 12.6026 17.75 13V13.0018C17.7501 13.3983 17.7718 13.665 17.8123 13.8496C17.8511 14.0261 17.8962 14.0765 17.9098 14.0902C17.9235 14.1038 17.974 14.1489 18.1504 14.1877C18.3353 14.2283 18.6026 14.25 19 14.25H23ZM20.25 15.75V17.4494C20.1424 17.5081 20.0426 17.5758 19.9497 17.6468C19.6968 17.8397 19.4231 18.1135 19.1262 18.4105L18.4105 19.1262C18.1135 19.4231 17.8397 19.6968 17.6468 19.9497C17.5758 20.0426 17.5081 20.1424 17.4494 20.25H17C16.036 20.25 15.3884 20.2484 14.9054 20.1835C14.4439 20.1214 14.2464 20.0142 14.1161 19.8839C13.9858 19.7536 13.8786 19.5561 13.8165 19.0946C13.7516 18.6116 13.75 17.964 13.75 17C13.75 16.036 13.7516 15.3884 13.8165 14.9054C13.8786 14.4439 13.9858 14.2464 14.1161 14.1161C14.2464 13.9858 14.4439 13.8786 14.9054 13.8165C15.2573 13.7692 15.6966 13.7555 16.2821 13.7516C16.297 13.8984 16.3181 14.0387 16.3473 14.1715C16.425 14.5252 16.5697 14.8713 16.8492 15.1508C17.1287 15.4303 17.4748 15.575 17.8285 15.6527C18.1737 15.7286 18.5701 15.75 19 15.75H20.25ZM21.75 26.25V24.5506C21.8576 24.4919 21.9574 24.4242 22.0503 24.3532C22.3032 24.1603 22.5769 23.8865 22.8738 23.5895L23.5895 22.8738C23.8865 22.5769 24.1603 22.3032 24.3532 22.0503C24.4242 21.9574 24.4919 21.8576 24.5506 21.75H25C25.964 21.75 26.6116 21.7516 27.0946 21.8165C27.5561 21.8786 27.7536 21.9858 27.8839 22.1161C28.0142 22.2464 28.1214 22.4439 28.1835 22.9054C28.2484 23.3884 28.25 24.036 28.25 25C28.25 25.964 28.2484 26.6116 28.1835 27.0946C28.1214 27.5561 28.0142 27.7536 27.8839 27.8839C27.7536 28.0142 27.5561 28.1214 27.0946 28.1835C26.7427 28.2308 26.3034 28.2445 25.7179 28.2484C25.703 28.1016 25.6819 27.9613 25.6527 27.8285C25.575 27.4748 25.4303 27.1287 25.1508 26.8492C24.8713 26.5697 24.5252 26.425 24.1715 26.3473C23.8263 26.2714 23.4299 26.25 23 26.25H21.75ZM19 27.75C18.6026 27.75 18.3353 27.7717 18.1504 27.8123C17.974 27.8511 17.9235 27.8962 17.9098 27.9098C17.8962 27.9235 17.8511 27.9739 17.8123 28.1504C17.7717 28.3353 17.75 28.6026 17.75 29C17.75 29.3974 17.7717 29.6647 17.8123 29.8496C17.8511 30.0261 17.8962 30.0765 17.9098 30.0902C17.9235 30.1038 17.974 30.1489 18.1504 30.1877C18.3353 30.2283 18.6026 30.25 19 30.25H23C23.3974 30.25 23.6647 30.2283 23.8496 30.1877C24.0261 30.1489 24.0765 30.1038 24.0902 30.0902C24.1038 30.0765 24.1489 30.0261 24.1877 29.8496C24.2283 29.6647 24.25 29.3974 24.25 29C24.25 28.6026 24.2283 28.3353 24.1877 28.1504C24.1489 27.9739 24.1038 27.9235 24.0902 27.9098C24.0765 27.8962 24.0261 27.8511 23.8496 27.8123C23.6647 27.7717 23.3974 27.75 23 27.75H19ZM20.1554 19.5025C20.4945 19.1635 20.6966 18.9637 20.8595 18.8393C20.9339 18.7825 20.9761 18.7609 20.9951 18.753L21 18.751L21.0049 18.753C21.0239 18.7609 21.0661 18.7825 21.1405 18.8393C21.3034 18.9637 21.5055 19.1635 21.8446 19.5025L22.4975 20.1554C22.8365 20.4945 23.0363 20.6966 23.1607 20.8595C23.2175 20.9339 23.2391 20.9761 23.247 20.9951L23.249 21L23.247 21.0049C23.2391 21.0239 23.2175 21.0661 23.1607 21.1405C23.0363 21.3034 22.8365 21.5055 22.4975 21.8446L21.8446 22.4975C21.5055 22.8365 21.3034 23.0363 21.1405 23.1607C21.0661 23.2175 21.0239 23.2391 21.0049 23.247L21 23.249L20.9951 23.247C20.9761 23.2391 20.9339 23.2175 20.8595 23.1607C20.6966 23.0363 20.4945 22.8365 20.1554 22.4975L19.5025 21.8446C19.1635 21.5055 18.9637 21.3034 18.8393 21.1405C18.7825 21.0661 18.7609 21.0239 18.753 21.0049L18.751 21L18.753 20.9951C18.7609 20.9761 18.7825 20.9339 18.8393 20.8595C18.9637 20.6966 19.1635 20.4945 19.5025 20.1554L20.1554 19.5025Z" fill="#FDB022"/>
</svg>
