<svg width="42" height="42" viewBox="0 0 42 42" fill="none" xmlns="http://www.w3.org/2000/svg">
<rect width="42" height="42" rx="8" fill="#ECFDF3"/>
<path opacity="0.4" d="M11.5 21C11.5 25.4783 11.5 27.7175 12.8912 29.1088C14.2825 30.5 16.5217 30.5 21 30.5C21.9247 30.5 22.754 30.5 23.5 30.4878C23.5 29.488 23.5006 28.9862 23.6531 28.5237C23.7003 28.3802 23.7582 28.2404 23.8263 28.1056C24.0464 27.6689 24.4028 27.3126 25.1155 26.5999L27.5462 24.1692C27.8576 23.8577 28.0133 23.702 28.1813 23.6188C28.5009 23.4604 28.8761 23.4604 29.1957 23.6188C29.3637 23.702 29.5194 23.8577 29.8308 24.1692C30.1423 24.4806 30.3567 24.778 30.44 24.946C30.5 23.8661 30.5 22.5708 30.5 21C30.5 19.8633 30.5 18.8709 30.4773 18H11.5227C11.5 18.8709 11.5 19.8633 11.5 21Z" fill="#32D583"/>
<path fill-rule="evenodd" clip-rule="evenodd" d="M21.0572 10.75H20.9428C18.7521 10.75 17.0314 10.75 15.688 10.9306C14.3114 11.1157 13.2191 11.5027 12.3609 12.3609C11.5027 13.2191 11.1157 14.3114 10.9306 15.688C10.75 17.0314 10.75 18.7521 10.75 20.9428V21.0637C10.75 21.3758 10.75 21.6783 10.7505 21.9716C10.7502 21.981 10.75 21.9905 10.75 22C10.75 22.0105 10.7502 22.021 10.7506 22.0314C10.7542 23.7663 10.7776 25.1744 10.9306 26.312C11.1157 27.6886 11.5027 28.7809 12.3609 29.6391C13.2191 30.4973 14.3114 30.8843 15.688 31.0694C17.0314 31.25 18.7521 31.25 20.9428 31.25H21C21.4142 31.25 21.75 30.9142 21.75 30.5L21.75 22.75H25.5C25.9142 22.75 26.25 22.4142 26.25 22C26.25 21.5858 25.9142 21.25 25.5 21.25H21.75V18.75H29.7412C29.7498 19.4215 29.75 20.1673 29.75 21C29.75 21.4142 30.0858 21.75 30.5 21.75C30.9142 21.75 31.25 21.4142 31.25 21V20.9428C31.25 18.7521 31.25 17.0314 31.0694 15.688C30.8843 14.3114 30.4973 13.2191 29.6391 12.3609C28.7809 11.5027 27.6886 11.1157 26.312 10.9306C24.9686 10.75 23.2479 10.75 21.0572 10.75ZM20.25 26.75V29.7497C18.3746 29.7475 16.9791 29.7295 15.8879 29.5828C14.6776 29.4201 13.9546 29.1115 13.4216 28.5784C12.9896 28.1464 12.705 27.5897 12.526 26.75H20.25ZM20.25 22.75V25.25H12.3307C12.2794 24.5394 12.2607 23.7168 12.2539 22.75L20.25 22.75ZM20.25 18.75V21.25L12.25 21.25L12.25 21C12.25 20.1673 12.2502 19.4215 12.2588 18.75H20.25ZM12.3007 17.25C12.3254 16.7472 12.3623 16.2962 12.4172 15.8879C12.5799 14.6776 12.8885 13.9546 13.4216 13.4216C13.9546 12.8885 14.6776 12.5799 15.8879 12.4172C17.1198 12.2516 18.7396 12.25 21 12.25C23.2604 12.25 24.8802 12.2516 26.1121 12.4172C27.3224 12.5799 28.0454 12.8885 28.5784 13.4216C29.1115 13.9546 29.4201 14.6776 29.5828 15.8879C29.6377 16.2962 29.6746 16.7472 29.6993 17.25L12.3007 17.25Z" fill="#32D583"/>
<path d="M29.7912 23.358C29.2605 23.0634 28.6161 23.0732 28.0945 23.3834C27.8765 23.5131 27.6876 23.7183 27.4839 23.9397L27.4347 23.9931L24.2068 27.4903C23.8514 27.8748 23.5741 28.1747 23.4103 28.5518C23.247 28.9277 23.2154 29.337 23.1747 29.864L23.1571 30.0907C23.15 30.1802 23.1404 30.3017 23.1464 30.4095C23.1538 30.5427 23.1881 30.7528 23.3532 30.9403C23.5203 31.1299 23.727 31.1896 23.8626 31.2122C23.9697 31.2301 24.0918 31.2331 24.1791 31.2353L24.399 31.2411C24.999 31.2574 25.475 31.2703 25.9175 31.0975C26.3586 30.9252 26.7029 30.593 27.1392 30.1719L30.4757 26.9583C30.6932 26.7494 30.8935 26.5571 31.0194 26.3361C31.318 25.8123 31.3271 25.1691 31.044 24.6369C30.9246 24.4124 30.73 24.2143 30.5186 23.9989L30.4685 23.9478L30.4178 23.8959C30.2078 23.6808 30.013 23.4812 29.7912 23.358Z" fill="#32D583"/>
</svg>
