<svg width="42" height="42" viewBox="0 0 42 42" fill="none" xmlns="http://www.w3.org/2000/svg">
<rect width="42" height="42" rx="8" fill="#FFF5F8"/>
<path opacity="0.4" d="M14 16V18.5279C14 19.7307 14 20.3321 14.2987 20.8154C14.5974 21.2987 15.1353 21.5677 16.2111 22.1056L21 24.5L25.7889 22.1056C26.8647 21.5677 27.4026 21.2987 27.7013 20.8154C28 20.3321 28 19.7307 28 18.5279V16.0011L29.2172 16.8125C30.0909 17.395 30.5278 17.6863 30.7645 18.1304C31.0013 18.5746 30.9995 19.0966 30.996 20.1406C30.9918 21.3975 30.9801 22.6783 30.9478 23.9741C30.871 27.0487 30.8327 28.586 29.7023 29.7164C28.5719 30.8469 27.0138 30.8858 23.8977 30.9637C21.9591 31.0121 20.0377 31.0121 18.0991 30.9637C14.983 30.8858 13.425 30.8469 12.2946 29.7165C11.1642 28.586 11.1258 27.0487 11.049 23.9741C11.0167 22.6783 11.005 21.3975 11.0008 20.1406C10.9973 19.0966 10.9955 18.5746 11.2323 18.1304C11.469 17.6863 11.9059 17.395 12.7796 16.8125L13.9984 16H14Z" fill="#FF75A7"/>
<path d="M18.9998 19.75C18.5856 19.75 18.2498 19.4142 18.2498 19C18.2498 18.5858 18.5856 18.25 18.9998 18.25H22.9998C23.414 18.25 23.7498 18.5858 23.7498 19C23.7498 19.4142 23.414 19.75 22.9998 19.75H18.9998Z" fill="#FF75A7"/>
<path d="M18.9998 15.75C18.5856 15.75 18.2498 15.4142 18.2498 15C18.2498 14.5858 18.5856 14.25 18.9998 14.25H22.9998C23.414 14.25 23.7498 14.5858 23.7498 15C23.7498 15.4142 23.414 15.75 22.9998 15.75H18.9998Z" fill="#FF75A7"/>
<path fill-rule="evenodd" clip-rule="evenodd" d="M17.9478 10.25H24.0518C24.9503 10.25 25.6995 10.2499 26.2943 10.3299C26.9221 10.4143 27.4889 10.6 27.9443 11.0555C28.3998 11.5109 28.5855 12.0777 28.6699 12.7055C28.7498 13.3003 28.7498 14.0495 28.7498 14.9479V15.5997L29.6603 16.2067C30.0739 16.4824 30.4264 16.7174 30.7019 16.9408C30.9956 17.179 31.2444 17.4367 31.4262 17.7776C31.6077 18.1181 31.683 18.4672 31.7171 18.8428C31.749 19.1947 31.7476 19.6162 31.7459 20.1102L31.7458 20.1431C31.7416 21.4027 31.7299 22.6894 31.6973 23.9929L31.6959 24.0513C31.6588 25.5389 31.6288 26.739 31.4585 27.7046C31.2798 28.718 30.9365 29.5427 30.2324 30.2468C29.5268 30.9524 28.6956 31.2951 27.6735 31.4736C26.6981 31.644 25.483 31.6743 23.9744 31.712L23.9162 31.7135C21.9651 31.7622 20.0313 31.7622 18.0802 31.7135L18.022 31.712C16.5134 31.6743 15.2983 31.644 14.3229 31.4736C13.3009 31.2951 12.4696 30.9524 11.764 30.2468C11.0599 29.5427 10.7166 28.718 10.5379 27.7046C10.3676 26.739 10.3376 25.5389 10.3005 24.0513L10.2991 23.9929C10.2665 22.6894 10.2548 21.4027 10.2506 20.1431L10.2505 20.1102C10.2488 19.6162 10.2474 19.1947 10.2793 18.8428C10.3134 18.4672 10.3887 18.1181 10.5702 17.7776C10.752 17.4367 11.0007 17.179 11.2945 16.9408C11.57 16.7174 11.9225 16.4824 12.336 16.2067L13.2498 15.5976V14.948C13.2498 14.0495 13.2497 13.3003 13.3297 12.7055C13.4141 12.0777 13.5998 11.5109 14.0552 11.0555C14.5107 10.6 15.0775 10.4143 15.7053 10.3299C16.3001 10.2499 17.0493 10.25 17.9478 10.25ZM28.7498 19.4754L28.7498 17.4025L28.801 17.4366C29.2493 17.7355 29.5426 17.9319 29.7571 18.1059C29.9594 18.27 30.0475 18.38 30.1025 18.4832C30.1246 18.5247 30.1446 18.5709 30.1621 18.628L28.7498 19.4754ZM27.2498 15V20.3754L23.7009 22.5047C22.936 22.9637 22.4094 23.2786 21.9718 23.4843C21.5496 23.6829 21.2663 23.7515 20.9998 23.7515C20.7333 23.7515 20.45 23.6829 20.0278 23.4843C19.5902 23.2786 19.0636 22.9637 18.2987 22.5047L14.7498 20.3754V15C14.7498 14.036 14.7514 13.3884 14.8163 12.9054C14.8784 12.4439 14.9856 12.2464 15.1159 12.1161C15.2462 11.9858 15.4437 11.8786 15.9052 11.8165C16.3882 11.7516 17.0358 11.75 17.9998 11.75H23.9998C24.9638 11.75 25.6114 11.7516 26.0944 11.8165C26.5559 11.8786 26.7534 11.9858 26.8837 12.1161C27.014 12.2464 27.1212 12.4439 27.1833 12.9054C27.2482 13.3884 27.2498 14.036 27.2498 15ZM13.2498 17.4003L13.2498 19.4754L11.8348 18.6264C11.8522 18.5701 11.872 18.5243 11.8939 18.4832C11.9489 18.38 12.0369 18.27 12.2393 18.1059C12.4538 17.9319 12.7471 17.7355 13.1954 17.4366L13.2498 17.4003ZM11.7513 20.3256C11.756 21.5193 11.768 22.7313 11.7986 23.9554C11.8375 25.5154 11.8666 26.6024 12.0151 27.4441C12.1573 28.2506 12.3984 28.7598 12.8247 29.1861C13.2495 29.611 13.7625 29.853 14.5811 29.996C15.4338 30.1449 16.5371 30.1744 18.1177 30.2139C20.0438 30.262 21.9527 30.262 23.8788 30.2139C25.4593 30.1744 26.5626 30.1449 27.4154 29.996C28.234 29.853 28.7469 29.611 29.1717 29.1861C29.598 28.7598 29.8391 28.2506 29.9813 27.4441C30.1298 26.6024 30.1589 25.5154 30.1978 23.9554C30.2283 22.7319 30.2404 21.5206 30.2451 20.3275L24.4398 23.8107C23.7157 24.2452 23.1243 24.6 22.61 24.8418C22.0725 25.0945 21.5643 25.2515 20.9998 25.2515C20.4353 25.2515 19.9271 25.0945 19.3896 24.8418C18.8752 24.6 18.2839 24.2452 17.5598 23.8107L11.7513 20.3256Z" fill="#FF75A7"/>
</svg>
