<svg width="42" height="42" viewBox="0 0 42 42" fill="none" xmlns="http://www.w3.org/2000/svg">
<rect width="42" height="42" rx="8" fill="#F5F3FF"/>
<path opacity="0.4" d="M15.0239 29.9749C16.049 31 17.6989 31 20.9988 31C24.2986 31 25.9485 31 26.9736 29.9749C27.8895 29.059 27.9871 27.6444 27.9975 25V17C27.9871 14.3556 27.8895 12.941 26.9736 12.0251C25.9485 11 24.2986 11 20.9988 11C17.6989 11 16.049 11 15.0239 12.0251C14.108 12.941 14.0104 14.3556 14 17V25C14.0104 27.6444 14.108 29.059 15.0239 29.9749Z" fill="#A48AFB"/>
<path d="M20.943 10.25H21.0545C22.6571 10.25 23.9361 10.25 24.9391 10.3848C25.9754 10.5242 26.8288 10.8197 27.504 11.4948C28.106 12.0968 28.4071 12.8418 28.5638 13.7347C28.7168 14.6059 28.7423 15.6832 28.7475 16.9971C28.7491 17.4113 28.4147 17.7484 28.0005 17.75C27.5863 17.7516 27.2492 17.4172 27.2475 17.003C27.2423 15.6724 27.2139 14.7202 27.0864 13.994C26.9628 13.2895 26.7572 12.8693 26.4433 12.5555C26.0933 12.2055 25.6092 11.9884 24.7393 11.8715C23.8478 11.7516 22.6699 11.75 20.9988 11.75C19.3276 11.75 18.1498 11.7516 17.2582 11.8715C16.3883 11.9884 15.9042 12.2055 15.5542 12.5555C15.2404 12.8693 15.0347 13.2895 14.9111 13.994C14.7836 14.7202 14.7552 15.6724 14.75 17.003C14.7484 17.4172 14.4113 17.7516 13.9971 17.75C13.5828 17.7484 13.2484 17.4113 13.25 16.9971C13.2552 15.6832 13.2808 14.6059 13.4337 13.7347C13.5904 12.8418 13.8915 12.0968 14.4936 11.4948C15.1687 10.8197 16.0221 10.5242 17.0584 10.3848C18.0615 10.25 19.3404 10.25 20.943 10.25Z" fill="#A48AFB"/>
<path d="M13.9971 24.25C14.4113 24.2484 14.7484 24.5828 14.75 24.9971C14.7552 26.3276 14.7836 27.2798 14.9111 28.006C15.0347 28.7105 15.2404 29.1307 15.5542 29.4445C15.9042 29.7945 16.3883 30.0116 17.2582 30.1285C18.1498 30.2484 19.3276 30.25 20.9988 30.25C22.6699 30.25 23.8478 30.2484 24.7393 30.1285C25.6092 30.0116 26.0933 29.7945 26.4433 29.4445C26.7572 29.1307 26.9628 28.7105 27.0864 28.006C27.2139 27.2798 27.2423 26.3276 27.2475 24.9971C27.2492 24.5829 27.5863 24.2484 28.0005 24.25C28.4147 24.2516 28.7491 24.5887 28.7475 25.003C28.7423 26.3168 28.7168 27.3941 28.5638 28.2653C28.4071 29.1582 28.106 29.9032 27.504 30.5052C26.8288 31.1803 25.9754 31.4758 24.9391 31.6152C23.9361 31.75 22.6571 31.75 21.0545 31.75H20.943C19.3404 31.75 18.0615 31.75 17.0584 31.6152C16.0221 31.4758 15.1687 31.1803 14.4936 30.5052C13.8915 29.9032 13.5904 29.1582 13.4337 28.2653C13.2808 27.3941 13.2552 26.3168 13.25 25.003C13.2484 24.5887 13.5828 24.2516 13.9971 24.25Z" fill="#A48AFB"/>
<path d="M19.25 28C19.25 27.5858 19.5858 27.25 20 27.25H22C22.4142 27.25 22.75 27.5858 22.75 28C22.75 28.4142 22.4142 28.75 22 28.75H20C19.5858 28.75 19.25 28.4142 19.25 28Z" fill="#A48AFB"/>
<path d="M24.5103 19.5681C24.1966 19.2977 24.1615 18.8241 24.4319 18.5104C24.7023 18.1966 25.1759 18.1615 25.4897 18.4319L26.7476 19.5161C26.978 19.7147 27.205 19.9103 27.3682 20.0946C27.5487 20.2985 27.75 20.5954 27.75 21C27.75 21.4046 27.5487 21.7015 27.3682 21.9054C27.2051 22.0897 26.978 22.2853 26.7476 22.4839L25.4897 23.5681C25.1759 23.8385 24.7023 23.8034 24.4319 23.4897C24.1615 23.1759 24.1966 22.7023 24.5103 22.4319L25.7369 21.3747C25.9366 21.2026 26.0685 21.0878 26.1591 21C26.0685 20.9123 25.9366 20.7974 25.7369 20.6253L24.5103 19.5681Z" fill="#A48AFB"/>
<path d="M17.5681 18.5104C17.8385 18.8241 17.8034 19.2977 17.4897 19.5681L16.2631 20.6253C16.0634 20.7974 15.9315 20.9123 15.8409 21C15.9315 21.0878 16.0634 21.2026 16.2631 21.3747L17.4897 22.4319C17.8034 22.7023 17.8385 23.1759 17.5681 23.4897C17.2977 23.8034 16.8241 23.8385 16.5103 23.5681L15.2524 22.4839C15.022 22.2853 14.795 22.0898 14.6318 21.9054C14.4513 21.7015 14.25 21.4046 14.25 21C14.25 20.5954 14.4513 20.2985 14.6318 20.0946C14.7949 19.9103 15.022 19.7147 15.2524 19.5162L16.5103 18.4319C16.8241 18.1615 17.2977 18.1966 17.5681 18.5104Z" fill="#A48AFB"/>
<path d="M22.7115 18.2374C22.8425 17.8444 22.6301 17.4197 22.2371 17.2887C21.8442 17.1577 21.4194 17.3701 21.2884 17.763L19.2884 23.763C19.1575 24.156 19.3698 24.5807 19.7628 24.7117C20.1557 24.8427 20.5805 24.6303 20.7115 24.2374L22.7115 18.2374Z" fill="#A48AFB"/>
</svg>
