<svg width="42" height="42" viewBox="0 0 42 42" fill="none" xmlns="http://www.w3.org/2000/svg">
<rect width="42" height="42" rx="8" fill="#EBFBFF"/>
<path opacity="0.4" d="M11.5 21C11.5 23.8284 11.5 25.2426 12.3787 26.1213C13.2574 27 14.6716 27 17.5 27H24.5C27.3284 27 28.7426 27 29.6213 26.1213C30.5 25.2426 30.5 23.8284 30.5 21V17C30.5 14.1716 30.5 12.7574 29.6213 11.8787C28.7426 11 27.3284 11 24.5 11H17.5C14.6716 11 13.2574 11 12.3787 11.8787C11.5 12.7574 11.5 14.1716 11.5 17V21Z" fill="#37D8F8" fill-opacity="0.6"/>
<path d="M21.75 16C21.75 15.5858 21.4142 15.25 21 15.25C20.5858 15.25 20.25 15.5858 20.25 16V22C20.25 22.4142 20.5858 22.75 21 22.75C21.4142 22.75 21.75 22.4142 21.75 22V16Z" fill="#37D8F8"/>
<path d="M17.75 19C17.75 18.5858 17.4142 18.25 17 18.25C16.5858 18.25 16.25 18.5858 16.25 19V22C16.25 22.4142 16.5858 22.75 17 22.75C17.4142 22.75 17.75 22.4142 17.75 22V19Z" fill="#37D8F8"/>
<path d="M25.75 20C25.75 19.5858 25.4142 19.25 25 19.25C24.5858 19.25 24.25 19.5858 24.25 20V22C24.25 22.4142 24.5858 22.75 25 22.75C25.4142 22.75 25.75 22.4142 25.75 22V20Z" fill="#37D8F8"/>
<path fill-rule="evenodd" clip-rule="evenodd" d="M17.4451 10.25H24.5549C25.9225 10.25 27.0248 10.25 27.8918 10.3665C28.7919 10.4875 29.5497 10.7464 30.1517 11.3484C30.7536 11.9503 31.0125 12.7081 31.1335 13.6083C31.25 14.4752 31.25 15.5775 31.25 16.9451V21.0549C31.25 22.4225 31.25 23.5248 31.1335 24.3918C31.0125 25.2919 30.7536 26.0497 30.1517 26.6517C29.5497 27.2536 28.7919 27.5125 27.8918 27.6335C27.1515 27.733 26.2397 27.7475 25.1376 27.7496L28.4685 30.4144C28.792 30.6731 28.8444 31.1451 28.5857 31.4685C28.3269 31.792 27.855 31.8444 27.5315 31.5857L22.7369 27.75H21.75V31C21.75 31.4142 21.4142 31.75 21 31.75C20.5858 31.75 20.25 31.4142 20.25 31V27.75H19.2631L14.4685 31.5857C14.1451 31.8444 13.6731 31.792 13.4144 31.4685C13.1556 31.1451 13.2081 30.6731 13.5315 30.4144L16.8624 27.7496C15.7604 27.7475 14.8485 27.733 14.1083 27.6335C13.2081 27.5125 12.4503 27.2536 11.8484 26.6517C11.2464 26.0497 10.9875 25.2919 10.8665 24.3918C10.75 23.5248 10.75 22.4225 10.75 21.0549V16.9451C10.75 15.5775 10.75 14.4752 10.8665 13.6083C10.9875 12.7081 11.2464 11.9503 11.8484 11.3484C12.4503 10.7464 13.2081 10.4875 14.1083 10.3665C14.9752 10.25 16.0775 10.25 17.4451 10.25ZM24.5 26.25H21.0017L21 26.25L20.9983 26.25H17.5C16.0646 26.25 15.0635 26.2484 14.3081 26.1469C13.5743 26.0482 13.1858 25.8678 12.909 25.591C12.6322 25.3142 12.4518 24.9257 12.3531 24.1919C12.2516 23.4365 12.25 22.4354 12.25 21V17C12.25 15.5646 12.2516 14.5635 12.3531 13.8081C12.4518 13.0743 12.6322 12.6858 12.909 12.409C13.1858 12.1322 13.5743 11.9518 14.3081 11.8531C15.0635 11.7516 16.0646 11.75 17.5 11.75H24.5C25.9354 11.75 26.9365 11.7516 27.6919 11.8531C28.4257 11.9518 28.8142 12.1322 29.091 12.409C29.3678 12.6858 29.5482 13.0743 29.6469 13.8081C29.7484 14.5635 29.75 15.5646 29.75 17V21C29.75 22.4354 29.7484 23.4365 29.6469 24.1919C29.5482 24.9257 29.3678 25.3142 29.091 25.591C28.8142 25.8678 28.4257 26.0482 27.6919 26.1469C26.9365 26.2484 25.9354 26.25 24.5 26.25Z" fill="#37D8F8"/>
</svg>
